<svg width="61" height="93" viewBox="0 0 61 93" fill="none" xmlns="http://www.w3.org/2000/svg">
<path d="M60.0037 40.0683C60.0037 56.0971 34.1382 91.0455 30.9336 91.0455C27.729 91.0455 1.86353 56.0971 1.86353 40.0683C1.86353 24.0394 14.8787 11.0455 30.9336 11.0455C46.9886 11.0455 60.0037 24.0394 60.0037 40.0683Z" fill="#7DFBA0" stroke="#D0A800" stroke-width="2"/>
<path d="M46.0861 51.8719C42.7387 51.8719 50.8738 49.7879 50.8738 38.5951C50.8738 32.0784 41.6698 28.274 46.0861 28.274C50.5024 28.274 53.6929 33.5562 53.6929 40.0729C53.6929 46.5896 50.2869 51.8719 46.0861 51.8719Z" fill="white" stroke="black" stroke-width="1.63567" stroke-miterlimit="10"/>
<path d="M46.0862 50.1564C48.987 50.1564 51.3386 45.6419 51.3386 40.073C51.3386 34.5041 48.987 29.9896 46.0862 29.9896C43.1853 29.9896 40.8337 34.5041 40.8337 40.073C40.8337 45.6419 43.1853 50.1564 46.0862 50.1564Z" stroke="#E5D228" stroke-width="1.63567" stroke-miterlimit="10"/>
<path d="M46.086 48.9508C48.3003 48.9508 50.0953 44.9761 50.0953 40.073C50.0953 35.1699 48.3003 31.1951 46.086 31.1951C43.8717 31.1951 42.0767 35.1699 42.0767 40.073C42.0767 44.9761 43.8717 48.9508 46.086 48.9508Z" stroke="black" stroke-width="1.63567" stroke-miterlimit="10"/>
<path d="M45.3432 20.5575C45.3432 18.6669 38.7755 17.1342 30.6732 17.1342C22.5708 17.1342 16.0031 18.6669 16.0031 20.5575V59.7347C15.9983 60.0474 16.0031 60.2793 16.0031 60.567C16.0031 62.4576 22.5708 63.9903 30.6732 63.9903C38.7755 63.9903 45.3432 62.4576 45.3432 60.567V20.5575Z" fill="#FCE40B" stroke="black" stroke-width="1.63567" stroke-miterlimit="10"/>
<path d="M20.7149 59.0333C21.343 59.0333 21.8522 58.5241 21.8522 57.896C21.8522 57.2679 21.343 56.7587 20.7149 56.7587C20.0868 56.7587 19.5776 57.2679 19.5776 57.896C19.5776 58.5241 20.0868 59.0333 20.7149 59.0333Z" fill="white"/>
<path d="M19.1783 30.2724C19.8064 30.2724 20.3156 29.7632 20.3156 29.1351C20.3156 28.507 19.8064 27.9979 19.1783 27.9979C18.5502 27.9979 18.041 28.507 18.041 29.1351C18.041 29.7632 18.5502 30.2724 19.1783 30.2724Z" fill="white"/>
<path d="M39.2066 27.8901C39.5206 27.8901 39.7752 27.6355 39.7752 27.3214C39.7752 27.0074 39.5206 26.7528 39.2066 26.7528C38.8925 26.7528 38.6379 27.0074 38.6379 27.3214C38.6379 27.6355 38.8925 27.8901 39.2066 27.8901Z" fill="white"/>
<path d="M24.6463 61.3088C25.2744 61.3088 25.7836 60.7996 25.7836 60.1715C25.7836 59.5434 25.2744 59.0342 24.6463 59.0342C24.0182 59.0342 23.509 59.5434 23.509 60.1715C23.509 60.7996 24.0182 61.3088 24.6463 61.3088Z" fill="white"/>
<path d="M28.7327 52.3376C29.3092 52.3376 29.7766 51.8702 29.7766 51.2937C29.7766 50.7171 29.3092 50.2498 28.7327 50.2498C28.1561 50.2498 27.6887 50.7171 27.6887 51.2937C27.6887 51.8702 28.1561 52.3376 28.7327 52.3376Z" fill="white"/>
<path d="M30.5077 42.9758C30.8441 42.9758 31.1168 42.7031 31.1168 42.3667C31.1168 42.0304 30.8441 41.7577 30.5077 41.7577C30.1714 41.7577 29.8987 42.0304 29.8987 42.3667C29.8987 42.7031 30.1714 42.9758 30.5077 42.9758Z" fill="white"/>
<path d="M24.174 34.5223C24.5104 34.5223 24.783 34.2496 24.783 33.9132C24.783 33.5769 24.5104 33.3042 24.174 33.3042C23.8376 33.3042 23.5649 33.5769 23.5649 33.9132C23.5649 34.2496 23.8376 34.5223 24.174 34.5223Z" fill="white"/>
<path d="M31.2814 36.6823C31.6178 36.6823 31.8905 36.4096 31.8905 36.0733C31.8905 35.7369 31.6178 35.4642 31.2814 35.4642C30.945 35.4642 30.6724 35.7369 30.6724 36.0733C30.6724 36.4096 30.945 36.6823 31.2814 36.6823Z" fill="white"/>
<path d="M35.9843 30.6659C36.3207 30.6659 36.5933 30.3932 36.5933 30.0569C36.5933 29.7205 36.3207 29.4478 35.9843 29.4478C35.6479 29.4478 35.3752 29.7205 35.3752 30.0569C35.3752 30.3932 35.6479 30.6659 35.9843 30.6659Z" fill="white"/>
<path d="M39.3395 35.8856C39.6759 35.8856 39.9486 35.613 39.9486 35.2766C39.9486 34.9402 39.6759 34.6675 39.3395 34.6675C39.0031 34.6675 38.7305 34.9402 38.7305 35.2766C38.7305 35.613 39.0031 35.8856 39.3395 35.8856Z" fill="white"/>
<path d="M42.4846 27.8112C42.4846 27.5859 42.3022 27.4033 42.0772 27.4033C41.8521 27.4033 41.6697 27.5859 41.6697 27.8112V59.5798C41.6697 59.8051 41.8521 59.9877 42.0772 59.9877C42.3022 59.9877 42.4846 59.8051 42.4846 59.5798V27.8112Z" fill="white"/>
<path d="M22.8423 27.8112C22.8423 27.5859 22.6599 27.4033 22.4348 27.4033C22.2098 27.4033 22.0273 27.5859 22.0273 27.8112V59.5798C22.0273 59.8051 22.2098 59.9877 22.4348 59.9877C22.6599 59.9877 22.8423 59.8051 22.8423 59.5798V27.8112Z" fill="white"/>
<path d="M43.497 22.7714C43.497 22.4494 43.2361 22.1884 42.9144 22.1884C42.5926 22.1884 42.3318 22.4494 42.3318 22.7714V60.3457C42.3318 60.6677 42.5926 60.9287 42.9144 60.9287C43.2361 60.9287 43.497 60.6677 43.497 60.3457V22.7714Z" fill="#D0A800"/>
<path d="M37.0082 23.3487C37.0082 23.0267 36.7474 22.7656 36.4256 22.7656C36.1039 22.7656 35.843 23.0267 35.843 23.3487V60.9229C35.843 61.245 36.1039 61.506 36.4256 61.506C36.7474 61.506 37.0082 61.245 37.0082 60.9229V23.3487Z" fill="#D0A800"/>
<path d="M22.4342 23.3487C22.4342 23.0267 22.1734 22.7656 21.8516 22.7656C21.5299 22.7656 21.269 23.0267 21.269 23.3487V60.9229C21.269 61.245 21.5299 61.506 21.8516 61.506C22.1734 61.506 22.4342 61.245 22.4342 60.9229V23.3487Z" fill="#D0A800"/>
<path d="M27.7079 24.4744C27.7079 24.1524 27.4471 23.8914 27.1253 23.8914C26.8036 23.8914 26.5427 24.1524 26.5427 24.4744V48.6102C26.5427 48.9322 26.8036 49.1933 27.1253 49.1933C27.4471 49.1933 27.7079 48.9322 27.7079 48.6102V24.4744Z" fill="#D0A800"/>
<path d="M27.7079 57.2706C27.7079 56.9485 27.4471 56.6875 27.1253 56.6875C26.8036 56.6875 26.5427 56.9485 26.5427 57.2706V61.3405C26.5427 61.6625 26.8036 61.9236 27.1253 61.9236C27.4471 61.9236 27.7079 61.6625 27.7079 61.3405V57.2706Z" fill="#D0A800"/>
<path d="M17.6178 22.7714C17.6178 22.4494 17.357 22.1884 17.0352 22.1884C16.7135 22.1884 16.4526 22.4494 16.4526 22.7714V60.3457C16.4526 60.6677 16.7135 60.9287 17.0352 60.9287C17.357 60.9287 17.6178 60.6677 17.6178 60.3457V22.7714Z" fill="#FCAD22"/>
<path d="M38.3406 29.3295C38.3406 29.1042 38.1581 28.9216 37.9331 28.9216C37.7081 28.9216 37.5256 29.1042 37.5256 29.3295V36.3716C37.5256 36.5969 37.7081 36.7795 37.9331 36.7795C38.1581 36.7795 38.3406 36.5969 38.3406 36.3716V29.3295Z" fill="white"/>
<path d="M42.7397 24.867C40.9106 25.909 37.5546 27.5052 31.1582 27.5052C24.7617 27.5052 21.0507 26.1861 19.5767 24.867" stroke="black" stroke-width="1.15459" stroke-miterlimit="10" stroke-linecap="round"/>
<path d="M48.1173 17.1101C48.1173 15.2445 46.6058 13.7329 44.7401 13.7329C43.7222 13.7329 42.81 14.1842 42.1914 14.8962C41.9393 13.0921 40.7058 11.6027 39.047 10.984C39.7513 10.5405 39.9861 9.61777 39.5666 8.89038C39.1365 8.14567 38.1849 7.89069 37.4412 8.32078C37.1814 8.47088 36.9822 8.68544 36.8504 8.93175C36.2587 7.95323 35.1849 7.29897 33.9582 7.29897C32.5496 7.29897 31.344 8.16106 30.8369 9.38589C30.6897 9.31277 30.5425 9.24638 30.3963 9.18768C30.6753 8.90673 30.8485 8.51898 30.8485 8.09082C30.8485 7.23161 30.1519 6.53501 29.2927 6.53501C28.4335 6.53501 27.7369 7.23161 27.7369 8.09082C25.7327 5.92308 22.9982 5.1928 21.6291 6.459C20.766 7.25759 20.6515 8.6585 21.1865 10.1287C20.6823 9.74574 20.0434 9.51578 19.3478 9.51578C17.7583 9.51578 16.4632 10.7137 16.4036 12.2118C13.7634 12.0896 11.4889 14.088 11.2878 16.7406C11.1521 18.5312 11.6447 19.0498 13.0149 20.011C12.3086 21.0703 13.4882 21.8834 13.7788 22.0729C14.5582 22.58 15.8744 22.1807 16.951 21.9555C17.1714 21.9209 17.3869 21.8709 17.5967 21.8074C18.6916 21.5389 19.6547 21.2416 20.0444 21.4735C26.97 25.5954 37.9819 24.8285 43.7039 22.1845C44.7093 21.7198 45.6186 20.9049 45.6551 19.529C46.6106 18.9324 48.1192 18.3215 48.1192 17.112L48.1173 17.1101Z" fill="white" stroke="black" stroke-width="1.15459" stroke-miterlimit="10" stroke-linecap="round"/>
<path d="M22.9903 43.4107C24.5637 43.4107 25.8393 42.1352 25.8393 40.5617C25.8393 38.9883 24.5637 37.7128 22.9903 37.7128C21.4169 37.7128 20.1414 38.9883 20.1414 40.5617C20.1414 42.1352 21.4169 43.4107 22.9903 43.4107Z" fill="black"/>
<path d="M22.9904 41.0015C23.6785 41.0015 24.2364 40.4436 24.2364 39.7555C24.2364 39.0673 23.6785 38.5095 22.9904 38.5095C22.3022 38.5095 21.7444 39.0673 21.7444 39.7555C21.7444 40.4436 22.3022 41.0015 22.9904 41.0015Z" fill="white"/>
<path d="M24.2613 41.9405C24.5185 41.9405 24.727 41.732 24.727 41.4748C24.727 41.2176 24.5185 41.0092 24.2613 41.0092C24.0041 41.0092 23.7957 41.2176 23.7957 41.4748C23.7957 41.732 24.0041 41.9405 24.2613 41.9405Z" fill="white"/>
<path d="M36.7906 43.4107C38.364 43.4107 39.6396 42.1352 39.6396 40.5617C39.6396 38.9883 38.364 37.7128 36.7906 37.7128C35.2172 37.7128 33.9417 38.9883 33.9417 40.5617C33.9417 42.1352 35.2172 43.4107 36.7906 43.4107Z" fill="black"/>
<path d="M36.7907 41.0015C37.4788 41.0015 38.0367 40.4436 38.0367 39.7555C38.0367 39.0673 37.4788 38.5095 36.7907 38.5095C36.1025 38.5095 35.5447 39.0673 35.5447 39.7555C35.5447 40.4436 36.1025 41.0015 36.7907 41.0015Z" fill="white"/>
<path d="M35.5187 41.9405C35.7759 41.9405 35.9843 41.732 35.9843 41.4748C35.9843 41.2176 35.7759 41.0092 35.5187 41.0092C35.2615 41.0092 35.053 41.2176 35.053 41.4748C35.053 41.732 35.2615 41.9405 35.5187 41.9405Z" fill="white"/>
<path d="M21.601 15.1011C21.601 15.1011 20.4675 16.9292 22.3293 18.2368C24.1911 19.5443 25.6565 18.2137 25.8701 18.0982" stroke="black" stroke-width="1.15459" stroke-miterlimit="10" stroke-linecap="round"/>
<path d="M26.23 51.7401C26.23 51.7401 25.5816 53.7914 27.7079 54.6006C29.8343 55.4098 30.9273 53.7597 31.1053 53.5952" stroke="black" stroke-width="1.15459" stroke-miterlimit="10" stroke-linecap="round"/>
<path d="M34.522 19.7214C34.522 19.7214 35.7747 21.4706 37.6971 20.2544C39.6195 19.0382 38.9546 17.1736 38.9296 16.9321" stroke="black" stroke-width="1.15459" stroke-miterlimit="10" stroke-linecap="round"/>
<path d="M35.9845 14.9481C36.3777 14.9481 36.6965 14.6293 36.6965 14.2361C36.6965 13.8429 36.3777 13.5241 35.9845 13.5241C35.5912 13.5241 35.2725 13.8429 35.2725 14.2361C35.2725 14.6293 35.5912 14.9481 35.9845 14.9481Z" fill="#FFB545"/>
<path d="M33.8263 17.1341C34.2195 17.1341 34.5383 16.8154 34.5383 16.4221C34.5383 16.0289 34.2195 15.7101 33.8263 15.7101C33.433 15.7101 33.1143 16.0289 33.1143 16.4221C33.1143 16.8154 33.433 17.1341 33.8263 17.1341Z" fill="#FFB545"/>
<path d="M30.3162 11.2409C30.5128 11.2409 30.6722 11.0815 30.6722 10.8849C30.6722 10.6883 30.5128 10.5289 30.3162 10.5289C30.1196 10.5289 29.9602 10.6883 29.9602 10.8849C29.9602 11.0815 30.1196 11.2409 30.3162 11.2409Z" fill="#FFB545"/>
<path d="M32.0337 13.1681C32.2303 13.1681 32.3897 13.0087 32.3897 12.8121C32.3897 12.6155 32.2303 12.4561 32.0337 12.4561C31.8371 12.4561 31.6777 12.6155 31.6777 12.8121C31.6777 13.0087 31.8371 13.1681 32.0337 13.1681Z" fill="#FFB545"/>
<path d="M24.5636 13.1681C24.9568 13.1681 25.2756 12.8494 25.2756 12.4561C25.2756 12.0629 24.9568 11.7441 24.5636 11.7441C24.1703 11.7441 23.8516 12.0629 23.8516 12.4561C23.8516 12.8494 24.1703 13.1681 24.5636 13.1681Z" fill="#FFB545"/>
<path d="M26.4129 16.3971C26.8062 16.3971 27.1249 16.0784 27.1249 15.6851C27.1249 15.2919 26.8062 14.9731 26.4129 14.9731C26.0197 14.9731 25.7009 15.2919 25.7009 15.6851C25.7009 16.0784 26.0197 16.3971 26.4129 16.3971Z" fill="#FFB545"/>
<path d="M29.2214 13.3856C29.2214 13.3856 28.7279 14.2804 29.6419 14.8548C30.556 15.4292 31.2189 14.7634 31.318 14.7037" stroke="black" stroke-width="0.769727" stroke-miterlimit="10" stroke-linecap="round"/>
<path d="M25.7007 30.4071C26.3288 30.4071 26.838 29.8979 26.838 29.2698C26.838 28.6417 26.3288 28.1326 25.7007 28.1326C25.0727 28.1326 24.5635 28.6417 24.5635 29.2698C24.5635 29.8979 25.0727 30.4071 25.7007 30.4071Z" fill="white"/>
</svg>
