<svg width="610" height="763" viewBox="0 0 610 763" fill="none" xmlns="http://www.w3.org/2000/svg">
<path d="M461.11 539.12C426.32 539.12 510.87 517.46 510.87 401.13C510.87 333.4 415.21 293.86 461.11 293.86C507.01 293.86 540.17 348.76 540.17 416.49C540.17 484.22 504.77 539.12 461.11 539.12Z" fill="white" stroke="black" stroke-width="17" stroke-miterlimit="10"/>
<path d="M461.11 521.29C491.259 521.29 515.7 474.369 515.7 416.49C515.7 358.61 491.259 311.69 461.11 311.69C430.961 311.69 406.52 358.61 406.52 416.49C406.52 474.369 430.961 521.29 461.11 521.29Z" stroke="#E5D228" stroke-width="17" stroke-miterlimit="10"/>
<path d="M461.11 508.76C484.124 508.76 502.78 467.449 502.78 416.49C502.78 365.531 484.124 324.22 461.11 324.22C438.096 324.22 419.44 365.531 419.44 416.49C419.44 467.449 438.096 508.76 461.11 508.76Z" stroke="black" stroke-width="17" stroke-miterlimit="10"/>
<path d="M453.39 213.66C453.39 194.01 385.13 178.08 300.92 178.08C216.71 178.08 148.45 194.01 148.45 213.66V620.84C148.4 624.09 148.45 626.5 148.45 629.49C148.45 649.14 216.71 665.07 300.92 665.07C385.13 665.07 453.39 649.14 453.39 629.49V213.66Z" fill="#FCE40B" stroke="black" stroke-width="17" stroke-miterlimit="10"/>
<path d="M197.42 613.55C203.948 613.55 209.24 608.258 209.24 601.73C209.24 595.202 203.948 589.91 197.42 589.91C190.892 589.91 185.6 595.202 185.6 601.73C185.6 608.258 190.892 613.55 197.42 613.55Z" fill="white"/>
<path d="M181.45 314.63C187.978 314.63 193.27 309.338 193.27 302.81C193.27 296.282 187.978 290.99 181.45 290.99C174.922 290.99 169.63 296.282 169.63 302.81C169.63 309.338 174.922 314.63 181.45 314.63Z" fill="white"/>
<path d="M389.61 289.87C392.874 289.87 395.52 287.224 395.52 283.96C395.52 280.696 392.874 278.05 389.61 278.05C386.346 278.05 383.7 280.696 383.7 283.96C383.7 287.224 386.346 289.87 389.61 289.87Z" fill="white"/>
<path d="M238.28 637.2C244.808 637.2 250.1 631.908 250.1 625.38C250.1 618.852 244.808 613.56 238.28 613.56C231.752 613.56 226.46 618.852 226.46 625.38C226.46 631.908 231.752 637.2 238.28 637.2Z" fill="white"/>
<path d="M280.75 543.96C286.742 543.96 291.6 539.102 291.6 533.11C291.6 527.118 286.742 522.26 280.75 522.26C274.758 522.26 269.9 527.118 269.9 533.11C269.9 539.102 274.758 543.96 280.75 543.96Z" fill="white"/>
<path d="M299.2 446.66C302.696 446.66 305.53 443.826 305.53 440.33C305.53 436.834 302.696 434 299.2 434C295.704 434 292.87 436.834 292.87 440.33C292.87 443.826 295.704 446.66 299.2 446.66Z" fill="white"/>
<path d="M233.37 358.8C236.866 358.8 239.7 355.966 239.7 352.47C239.7 348.974 236.866 346.14 233.37 346.14C229.874 346.14 227.04 348.974 227.04 352.47C227.04 355.966 229.874 358.8 233.37 358.8Z" fill="white"/>
<path d="M307.24 381.25C310.736 381.25 313.57 378.416 313.57 374.92C313.57 371.424 310.736 368.59 307.24 368.59C303.744 368.59 300.91 371.424 300.91 374.92C300.91 378.416 303.744 381.25 307.24 381.25Z" fill="white"/>
<path d="M356.12 318.72C359.616 318.72 362.45 315.886 362.45 312.39C362.45 308.894 359.616 306.06 356.12 306.06C352.624 306.06 349.79 308.894 349.79 312.39C349.79 315.886 352.624 318.72 356.12 318.72Z" fill="white"/>
<path d="M390.99 372.97C394.486 372.97 397.32 370.136 397.32 366.64C397.32 363.144 394.486 360.31 390.99 360.31C387.494 360.31 384.66 363.144 384.66 366.64C384.66 370.136 387.494 372.97 390.99 372.97Z" fill="white"/>
<path d="M423.68 289.05C423.68 286.708 421.784 284.81 419.445 284.81C417.106 284.81 415.21 286.708 415.21 289.05V619.23C415.21 621.572 417.106 623.47 419.445 623.47C421.784 623.47 423.68 621.572 423.68 619.23V289.05Z" fill="white"/>
<path d="M219.53 289.05C219.53 286.708 217.634 284.81 215.295 284.81C212.956 284.81 211.06 286.708 211.06 289.05V619.23C211.06 621.572 212.956 623.47 215.295 623.47C217.634 623.47 219.53 621.572 219.53 619.23V289.05Z" fill="white"/>
<path d="M434.2 236.67C434.2 233.323 431.489 230.61 428.145 230.61C424.801 230.61 422.09 233.323 422.09 236.67V627.19C422.09 630.537 424.801 633.25 428.145 633.25C431.489 633.25 434.2 630.537 434.2 627.19V236.67Z" fill="#D0A800"/>
<path d="M366.76 242.67C366.76 239.323 364.049 236.61 360.705 236.61C357.361 236.61 354.65 239.323 354.65 242.67V633.19C354.65 636.537 357.361 639.25 360.705 639.25C364.049 639.25 366.76 636.537 366.76 633.19V242.67Z" fill="#D0A800"/>
<path d="M215.29 242.67C215.29 239.323 212.579 236.61 209.235 236.61C205.891 236.61 203.18 239.323 203.18 242.67V633.19C203.18 636.537 205.891 639.25 209.235 639.25C212.579 639.25 215.29 636.537 215.29 633.19V242.67Z" fill="#D0A800"/>
<path d="M270.1 254.37C270.1 251.023 267.389 248.31 264.045 248.31C260.701 248.31 257.99 251.023 257.99 254.37V505.22C257.99 508.567 260.701 511.28 264.045 511.28C267.389 511.28 270.1 508.567 270.1 505.22V254.37Z" fill="#D0A800"/>
<path d="M270.1 595.23C270.1 591.883 267.389 589.17 264.045 589.17C260.701 589.17 257.99 591.883 257.99 595.23V637.53C257.99 640.877 260.701 643.59 264.045 643.59C267.389 643.59 270.1 640.877 270.1 637.53V595.23Z" fill="#D0A800"/>
<path d="M165.23 236.67C165.23 233.323 162.519 230.61 159.175 230.61C155.831 230.61 153.12 233.323 153.12 236.67V627.19C153.12 630.537 155.831 633.25 159.175 633.25C162.519 633.25 165.23 630.537 165.23 627.19V236.67Z" fill="#FCAD22"/>
<path d="M380.61 304.83C380.61 302.488 378.714 300.59 376.375 300.59C374.036 300.59 372.14 302.488 372.14 304.83V378.02C372.14 380.362 374.036 382.26 376.375 382.26C378.714 382.26 380.61 380.362 380.61 378.02V304.83Z" fill="white"/>
<path d="M426.33 258.45C407.32 269.28 372.44 285.87 305.96 285.87C239.48 285.87 200.91 272.16 185.59 258.45" stroke="black" stroke-width="12" stroke-miterlimit="10" stroke-linecap="round"/>
<path d="M482.22 177.83C482.22 158.44 466.51 142.73 447.12 142.73C436.54 142.73 427.06 147.42 420.63 154.82C418.01 136.07 405.19 120.59 387.95 114.16C395.27 109.55 397.71 99.9599 393.35 92.3999C388.88 84.6599 378.99 82.0099 371.26 86.4799C368.56 88.0399 366.49 90.2699 365.12 92.8299C358.97 82.6599 347.81 75.8599 335.06 75.8599C320.42 75.8599 307.89 84.8199 302.62 97.5499C301.09 96.7899 299.56 96.0999 298.04 95.4899C300.94 92.5699 302.74 88.5399 302.74 84.0899C302.74 75.1599 295.5 67.9199 286.57 67.9199C277.64 67.9199 270.4 75.1599 270.4 84.0899C249.57 61.5599 221.15 53.9699 206.92 67.1299C197.95 75.4299 196.76 89.9899 202.32 105.27C197.08 101.29 190.44 98.8999 183.21 98.8999C166.69 98.8999 153.23 111.35 152.61 126.92C125.17 125.65 101.53 146.42 99.44 173.99C98.03 192.6 103.15 197.99 117.39 207.98C110.05 218.99 122.31 227.44 125.33 229.41C133.43 234.68 147.11 230.53 158.3 228.19C160.59 227.83 162.83 227.31 165.01 226.65C176.39 223.86 186.4 220.77 190.45 223.18C262.43 266.02 376.88 258.05 436.35 230.57C446.8 225.74 456.25 217.27 456.63 202.97C466.56 196.77 482.24 190.42 482.24 177.85L482.22 177.83Z" fill="white" stroke="black" stroke-width="12" stroke-miterlimit="10" stroke-linecap="round"/>
<path d="M221.07 451.18C237.423 451.18 250.68 437.923 250.68 421.57C250.68 405.217 237.423 391.96 221.07 391.96C204.717 391.96 191.46 405.217 191.46 421.57C191.46 437.923 204.717 451.18 221.07 451.18Z" fill="black"/>
<path d="M221.07 426.14C228.222 426.14 234.02 420.342 234.02 413.19C234.02 406.038 228.222 400.24 221.07 400.24C213.918 400.24 208.12 406.038 208.12 413.19C208.12 420.342 213.918 426.14 221.07 426.14Z" fill="white"/>
<path d="M234.28 435.9C236.953 435.9 239.12 433.733 239.12 431.06C239.12 428.387 236.953 426.22 234.28 426.22C231.607 426.22 229.44 428.387 229.44 431.06C229.44 433.733 231.607 435.9 234.28 435.9Z" fill="white"/>
<path d="M364.5 451.18C380.853 451.18 394.11 437.923 394.11 421.57C394.11 405.217 380.853 391.96 364.5 391.96C348.147 391.96 334.89 405.217 334.89 421.57C334.89 437.923 348.147 451.18 364.5 451.18Z" fill="black"/>
<path d="M364.5 426.14C371.652 426.14 377.45 420.342 377.45 413.19C377.45 406.038 371.652 400.24 364.5 400.24C357.348 400.24 351.55 406.038 351.55 413.19C351.55 420.342 357.348 426.14 364.5 426.14Z" fill="white"/>
<path d="M351.28 435.9C353.953 435.9 356.12 433.733 356.12 431.06C356.12 428.387 353.953 426.22 351.28 426.22C348.607 426.22 346.44 428.387 346.44 431.06C346.44 433.733 348.607 435.9 351.28 435.9Z" fill="white"/>
<path d="M206.63 156.95C206.63 156.95 194.85 175.95 214.2 189.54C233.55 203.13 248.78 189.3 251 188.1" stroke="black" stroke-width="12" stroke-miterlimit="10" stroke-linecap="round"/>
<path d="M254.74 537.75C254.74 537.75 248 559.07 270.1 567.48C292.2 575.89 303.56 558.74 305.41 557.03" stroke="black" stroke-width="12" stroke-miterlimit="10" stroke-linecap="round"/>
<path d="M340.92 204.97C340.92 204.97 353.94 223.15 373.92 210.51C393.9 197.87 386.99 178.49 386.73 175.98" stroke="black" stroke-width="12" stroke-miterlimit="10" stroke-linecap="round"/>
<path d="M356.12 155.36C360.207 155.36 363.52 152.047 363.52 147.96C363.52 143.873 360.207 140.56 356.12 140.56C352.033 140.56 348.72 143.873 348.72 147.96C348.72 152.047 352.033 155.36 356.12 155.36Z" fill="#FFB545"/>
<path d="M333.69 178.08C337.777 178.08 341.09 174.767 341.09 170.68C341.09 166.593 337.777 163.28 333.69 163.28C329.603 163.28 326.29 166.593 326.29 170.68C326.29 174.767 329.603 178.08 333.69 178.08Z" fill="#FFB545"/>
<path d="M297.21 116.83C299.253 116.83 300.91 115.174 300.91 113.13C300.91 111.087 299.253 109.43 297.21 109.43C295.167 109.43 293.51 111.087 293.51 113.13C293.51 115.174 295.167 116.83 297.21 116.83Z" fill="#FFB545"/>
<path d="M315.06 136.86C317.103 136.86 318.76 135.203 318.76 133.16C318.76 131.117 317.103 129.46 315.06 129.46C313.016 129.46 311.36 131.117 311.36 133.16C311.36 135.203 313.016 136.86 315.06 136.86Z" fill="#FFB545"/>
<path d="M237.42 136.86C241.507 136.86 244.82 133.547 244.82 129.46C244.82 125.373 241.507 122.06 237.42 122.06C233.333 122.06 230.02 125.373 230.02 129.46C230.02 133.547 233.333 136.86 237.42 136.86Z" fill="#FFB545"/>
<path d="M256.64 170.42C260.727 170.42 264.04 167.107 264.04 163.02C264.04 158.933 260.727 155.62 256.64 155.62C252.553 155.62 249.24 158.933 249.24 163.02C249.24 167.107 252.553 170.42 256.64 170.42Z" fill="#FFB545"/>
<path d="M285.83 139.12C285.83 139.12 280.7 148.42 290.2 154.39C299.7 160.36 306.59 153.44 307.62 152.82" stroke="black" stroke-width="8" stroke-miterlimit="10" stroke-linecap="round"/>
<path d="M249.24 316.03C255.768 316.03 261.06 310.738 261.06 304.21C261.06 297.682 255.768 292.39 249.24 292.39C242.712 292.39 237.42 297.682 237.42 304.21C237.42 310.738 242.712 316.03 249.24 316.03Z" fill="white"/>
</svg>
