<svg width="45" height="74" viewBox="0 0 45 74" fill="none" xmlns="http://www.w3.org/2000/svg">
<path d="M41.9656 29.924C41.9656 40.5774 24.7743 63.8055 22.6444 63.8055C20.5145 63.8055 3.32324 40.5774 3.32324 29.924C3.32324 19.2705 11.9736 10.6342 22.6444 10.6342C33.3152 10.6342 41.9656 19.2705 41.9656 29.924Z" fill="#959595" stroke="#00475A" stroke-width="1.32928"/>
<path d="M30.2411 44.8632C30.2411 39.9415 32.2917 39.8784 33.5643 39.8784C36.2229 39.8784 37.1235 42.537 37.5522 43.2016" stroke="black" stroke-width="1.23534" stroke-miterlimit="10"/>
<path d="M31.2381 53.5035C32.235 51.5096 35.2259 48.1864 36.5552 44.8632C36.2228 44.1986 35.6984 41.2595 33.5075 41.2595C31.3167 41.2595 29.5406 44.6691 29.5406 48.875C29.5406 53.081 29.0472 53.5035 31.2381 53.5035Z" stroke="#00475A" stroke-width="1.23534" stroke-miterlimit="10"/>
<path d="M31.9028 52.5066C32.8998 50.845 34.229 49.1834 35.8906 46.1925C36.5478 45.0095 35.1799 42.17 33.5076 42.17C31.8352 42.17 30.4796 45.172 30.4796 48.875C30.4796 52.5781 30.2305 52.5066 31.9028 52.5066Z" stroke="black" stroke-width="1.23534" stroke-miterlimit="10"/>
<path d="M31.9028 34.5613C31.9028 33.1334 27.9863 31.5505 21.867 31.5505C15.7477 31.5505 10.7875 32.7081 10.7875 34.136L10.7875 48.5187C10.7839 48.7549 14.6221 54.2832 14.6221 54.5005C15.6191 56.1621 21.9332 63.8055 22.5978 63.8055C23.9271 63.8055 30.5735 55.4975 31.9028 52.5066V34.5613Z" fill="#C0C0C0" stroke="black" stroke-width="1.23534" stroke-miterlimit="10"/>
<path d="M17.4749 54.2244C17.9493 54.2244 18.3338 53.8399 18.3338 53.3655C18.3338 52.8911 17.9493 52.5066 17.4749 52.5066C17.0005 52.5066 16.616 52.8911 16.616 53.3655C16.616 53.8399 17.0005 54.2244 17.4749 54.2244Z" fill="#D9D9D9"/>
<path d="M13.1855 41.4732C13.6598 41.4732 14.0444 41.0886 14.0444 40.6143C14.0444 40.1399 13.6598 39.7553 13.1855 39.7553C12.7111 39.7553 12.3265 40.1399 12.3265 40.6143C12.3265 41.0886 12.7111 41.4732 13.1855 41.4732Z" fill="white"/>
<path d="M28.755 40.5601C28.9922 40.5601 29.1845 40.3679 29.1845 40.1307C29.1845 39.8935 28.9922 39.7012 28.755 39.7012C28.5178 39.7012 28.3256 39.8935 28.3256 40.1307C28.3256 40.3679 28.5178 40.5601 28.755 40.5601Z" fill="white"/>
<path d="M23.4567 56.883C23.9311 56.883 24.3156 56.4984 24.3156 56.0241C24.3156 55.5497 23.9311 55.1651 23.4567 55.1651C22.9823 55.1651 22.5978 55.5497 22.5978 56.0241C22.5978 56.4984 22.9823 56.883 23.4567 56.883Z" fill="#D9D9D9"/>
<path d="M20.4014 58.1379C20.8368 58.1379 21.1898 57.7849 21.1898 57.3495C21.1898 56.914 20.8368 56.5611 20.4014 56.5611C19.9659 56.5611 19.6129 56.914 19.6129 57.3495C19.6129 57.7849 19.9659 58.1379 20.4014 58.1379Z" fill="white"/>
<path d="M21.742 51.0674C21.996 51.0674 22.2019 50.8615 22.2019 50.6074C22.2019 50.3534 21.996 50.1474 21.742 50.1474C21.4879 50.1474 21.282 50.3534 21.282 50.6074C21.282 50.8615 21.4879 51.0674 21.742 51.0674Z" fill="white"/>
<path d="M16.9584 44.6829C17.2124 44.6829 17.4184 44.4769 17.4184 44.2229C17.4184 43.9688 17.2124 43.7629 16.9584 43.7629C16.7044 43.7629 16.4984 43.9688 16.4984 44.2229C16.4984 44.4769 16.7044 44.6829 16.9584 44.6829Z" fill="#D9D9D9"/>
<path d="M22.3263 46.3143C22.5804 46.3143 22.7863 46.1083 22.7863 45.8543C22.7863 45.6002 22.5804 45.3943 22.3263 45.3943C22.0723 45.3943 21.8663 45.6002 21.8663 45.8543C21.8663 46.1083 22.0723 46.3143 22.3263 46.3143Z" fill="#D9D9D9"/>
<path d="M24.4248 42.4971C24.6789 42.4971 24.8848 42.2911 24.8848 42.0371C24.8848 41.783 24.6789 41.5771 24.4248 41.5771C24.1708 41.5771 23.9648 41.783 23.9648 42.0371C23.9648 42.2911 24.1708 42.4971 24.4248 42.4971Z" fill="#959595"/>
<path d="M28.412 45.7126C28.666 45.7126 28.872 45.5066 28.872 45.2526C28.872 44.9985 28.666 44.7926 28.412 44.7926C28.158 44.7926 27.952 44.9985 27.952 45.2526C27.952 45.5066 28.158 45.7126 28.412 45.7126Z" fill="white"/>
<path d="M30.5735 39.4052C30.5735 39.2995 30.4247 39.2138 30.2411 39.2138C30.0576 39.2138 29.9088 39.2995 29.9088 39.4052V54.3091C29.9088 54.4148 30.0576 54.5005 30.2411 54.5005C30.4247 54.5005 30.5735 54.4148 30.5735 54.3091V39.4052Z" fill="white"/>
<path d="M15.9514 39.4218C15.9514 39.3069 15.8026 39.2138 15.6191 39.2138C15.4355 39.2138 15.2867 39.3069 15.2867 39.4218V55.6218C15.2867 55.7366 15.4355 55.8298 15.6191 55.8298C15.8026 55.8298 15.9514 55.7366 15.9514 55.6218V39.4218Z" fill="white"/>
<path d="M31.2381 36.1607C31.2381 36.0115 31.0893 35.8906 30.9058 35.8906C30.7223 35.8906 30.5735 36.0115 30.5735 36.1607V53.5658C30.5735 53.7149 30.7223 53.8359 30.9058 53.8359C31.0893 53.8359 31.2381 53.7149 31.2381 53.5658V36.1607Z" fill="#959595"/>
<path d="M26.5857 40.1885C26.5857 40.0173 26.4369 39.8784 26.2533 39.8784C26.0698 39.8784 25.921 40.0173 25.921 40.1885V60.1722C25.921 60.3434 26.0698 60.4823 26.2533 60.4823C26.4369 60.4823 26.5857 60.3434 26.5857 60.1722V40.1885Z" fill="#959595"/>
<path d="M15.5083 39.2356C15.5083 39.1012 15.3099 38.9922 15.0652 38.9922C14.8205 38.9922 14.6221 39.1012 14.6221 39.2356V54.9217C14.6221 55.0562 14.8205 55.1651 15.0652 55.1651C15.3099 55.1651 15.5083 55.0562 15.5083 54.9217V39.2356Z" fill="#959595"/>
<path d="M19.2746 40.8953C19.2746 40.7008 19.1258 40.5431 18.9423 40.5431C18.7588 40.5431 18.61 40.7008 18.61 40.8953V55.4775C18.61 55.6721 18.7588 55.8298 18.9423 55.8298C19.1258 55.8298 19.2746 55.6721 19.2746 55.4775V40.8953Z" fill="#959595"/>
<path d="M11.9635 35.446C11.9635 35.3245 11.8147 35.2259 11.6311 35.2259C11.4476 35.2259 11.2988 35.3245 11.2988 35.446V49.628C11.2988 49.7495 11.4476 49.848 11.6311 49.848C11.8147 49.848 11.9635 49.7495 11.9635 49.628V35.446Z" fill="#959595"/>
<path d="M27.6578 40.761C27.6578 40.5909 27.5201 40.4529 27.3501 40.4529C27.1801 40.4529 27.0424 40.5909 27.0424 40.761V46.0796C27.0424 46.2497 27.1801 46.3877 27.3501 46.3877C27.5201 46.3877 27.6578 46.2497 27.6578 46.0796V40.761Z" fill="#959595"/>
<path d="M29.5396 37.642C28.2014 38.3714 25.8607 39.138 21.301 38.9391C16.7412 38.7402 14.1392 37.6294 13.1318 36.5883" stroke="black" stroke-width="0.872005" stroke-miterlimit="10" stroke-linecap="round"/>
<path d="M35.0415 31.5323C35.0415 30.1233 33.8999 28.9817 32.4909 28.9817C31.722 28.9817 31.0332 29.3225 30.5659 29.8602C30.3755 28.4977 29.4439 27.3729 28.1911 26.9056C28.7231 26.5706 28.9004 25.8737 28.5835 25.3244C28.2587 24.7619 27.54 24.5694 26.9783 24.8942C26.7821 25.0075 26.6317 25.1696 26.5322 25.3556C26.0852 24.6166 25.2743 24.1225 24.3478 24.1225C23.2839 24.1225 22.3734 24.7736 21.9905 25.6986C21.8793 25.6434 21.7681 25.5932 21.6576 25.5489C21.8684 25.3367 21.9992 25.0439 21.9992 24.7205C21.9992 24.0716 21.4731 23.5455 20.8242 23.5455C20.1752 23.5455 19.6491 24.0716 19.6491 24.7205C18.1355 23.0833 16.0703 22.5318 15.0362 23.4881C14.3844 24.0912 14.2979 25.1492 14.7019 26.2596C14.3212 25.9704 13.8387 25.7967 13.3133 25.7967C12.1128 25.7967 11.1347 26.7014 11.0897 27.8328C9.09568 27.7405 7.37783 29.2498 7.22596 31.2533C7.1235 32.6056 7.49555 32.9973 8.53033 33.7232C7.99696 34.5233 8.88785 35.1373 9.10731 35.2805C9.69591 35.6634 10.69 35.3619 11.5031 35.1918C11.6696 35.1657 11.8323 35.1279 11.9907 35.0799C12.8177 34.8772 13.5451 34.6526 13.8394 34.8278C19.07 37.9408 27.3867 37.3617 31.7082 35.3648C32.4676 35.0138 33.1543 34.3983 33.1819 33.3592C33.9035 32.9086 35.0429 32.4472 35.0429 31.5338L35.0415 31.5323Z" fill="white" stroke="black" stroke-width="0.872005" stroke-miterlimit="10" stroke-linecap="round"/>
<path d="M14.1955 50.3103C14.7843 51.3425 16.0984 51.702 17.1306 51.1132C18.1628 50.5244 18.5222 49.2103 17.9334 48.1781C17.3446 47.1459 16.0305 46.7864 14.9983 47.3752C13.9661 47.964 13.6067 49.2781 14.1955 50.3103Z" fill="black"/>
<path d="M15.7761 49.4087C16.0336 49.8602 16.6083 50.0174 17.0597 49.7599C17.5112 49.5023 17.6684 48.9276 17.4109 48.4762C17.1533 48.0247 16.5786 47.8675 16.1272 48.1251C15.6757 48.3826 15.5185 48.9573 15.7761 49.4087Z" fill="white"/>
<path d="M15.6357 50.594C15.7319 50.7627 15.9467 50.8214 16.1154 50.7252C16.2841 50.6289 16.3429 50.4141 16.2467 50.2454C16.1504 50.0767 15.9356 50.0179 15.7669 50.1142C15.5982 50.2104 15.5394 50.4252 15.6357 50.594Z" fill="white"/>
<path d="M28.4135 50.2028C28.9429 49.139 28.5097 47.8473 27.4458 47.3179C26.3819 46.7884 25.0903 47.2217 24.5608 48.2855C24.0314 49.3494 24.4646 50.6411 25.5285 51.1705C26.5924 51.7 27.884 51.2667 28.4135 50.2028Z" fill="black"/>
<path d="M26.7845 49.3921C27.0161 48.9269 26.8266 48.362 26.3613 48.1304C25.896 47.8988 25.3311 48.0883 25.0996 48.5536C24.868 49.0189 25.0575 49.5838 25.5228 49.8154C25.9881 50.0469 26.553 49.8574 26.7845 49.3921Z" fill="white"/>
<path d="M26.9914 50.5682C27.0779 50.3943 27.0071 50.1832 26.8332 50.0966C26.6593 50.0101 26.4482 50.0809 26.3617 50.2548C26.2751 50.4287 26.3459 50.6398 26.5198 50.7264C26.6937 50.8129 26.9049 50.7421 26.9914 50.5682Z" fill="white"/>
<path d="M15.0151 30.015C15.0151 30.015 14.1591 31.3957 15.5652 32.3833C16.9713 33.3708 18.0781 32.3658 18.2394 32.2786" stroke="black" stroke-width="0.872005" stroke-miterlimit="10" stroke-linecap="round"/>
<path d="M18.9421 56.8268C18.9421 56.8268 19.3506 58.5713 20.9566 59.1824C22.5625 59.7935 24.4572 59.3067 24.5916 59.1824" stroke="black" stroke-width="0.872005" stroke-miterlimit="10" stroke-linecap="round"/>
<path d="M24.7736 33.5045C24.7736 33.5045 25.7197 34.8256 27.1716 33.9071C28.6235 32.9886 28.1213 31.5803 28.1024 31.3979" stroke="black" stroke-width="0.872005" stroke-miterlimit="10" stroke-linecap="round"/>
<path d="M28.0581 29.8995C28.3551 29.8995 28.5959 29.6587 28.5959 29.3618C28.5959 29.0648 28.3551 28.824 28.0581 28.824C27.7611 28.824 27.5204 29.0648 27.5204 29.3618C27.5204 29.6587 27.7611 29.8995 28.0581 29.8995Z" fill="#D9D9D9"/>
<path d="M21.3417 33.7305C21.6387 33.7305 21.8794 33.4897 21.8794 33.1928C21.8794 32.8958 21.6387 32.655 21.3417 32.655C21.0447 32.655 20.804 32.8958 20.804 33.1928C20.804 33.4897 21.0447 33.7305 21.3417 33.7305Z" fill="#D9D9D9"/>
<path d="M11.2925 30.5855C11.5895 30.5855 11.8302 30.3447 11.8302 30.0477C11.8302 29.7507 11.5895 29.51 11.2925 29.51C10.9955 29.51 10.7548 29.7507 10.7548 30.0477C10.7548 30.3447 10.9955 30.5855 11.2925 30.5855Z" fill="#D9D9D9"/>
<path d="M21.5974 27.0996C21.7458 27.0996 21.8662 26.9792 21.8662 26.8308C21.8662 26.6823 21.7458 26.5619 21.5974 26.5619C21.4489 26.5619 21.3285 26.6823 21.3285 26.8308C21.3285 26.9792 21.4489 27.0996 21.5974 27.0996Z" fill="#D9D9D9"/>
<path d="M21.7318 28.5551C21.8803 28.5551 22.0006 28.4348 22.0006 28.2863C22.0006 28.1378 21.8803 28.0174 21.7318 28.0174C21.5833 28.0174 21.4629 28.1378 21.4629 28.2863C21.4629 28.4348 21.5833 28.5551 21.7318 28.5551Z" fill="#D9D9D9"/>
<path d="M16.308 25.5031C16.605 25.5031 16.8457 25.2624 16.8457 24.9654C16.8457 24.6684 16.605 24.4277 16.308 24.4277C16.011 24.4277 15.7703 24.6684 15.7703 24.9654C15.7703 25.2624 16.011 25.5031 16.308 25.5031Z" fill="#D9D9D9"/>
<path d="M18.6493 30.9939C18.9463 30.9939 19.187 30.7531 19.187 30.4561C19.187 30.1591 18.9463 29.9184 18.6493 29.9184C18.3523 29.9184 18.1116 30.1591 18.1116 30.4561C18.1116 30.7531 18.3523 30.9939 18.6493 30.9939Z" fill="#D9D9D9"/>
<path d="M20.7704 28.7194C20.7704 28.7194 20.3976 29.3952 21.088 29.829C21.7783 30.2628 22.279 29.76 22.3538 29.7149" stroke="black" stroke-width="0.581337" stroke-miterlimit="10" stroke-linecap="round"/>
<path d="M17.5723 42.5639C18.0467 42.5639 18.4312 42.1794 18.4312 41.705C18.4312 41.2306 18.0467 40.8461 17.5723 40.8461C17.0979 40.8461 16.7134 41.2306 16.7134 41.705C16.7134 42.1794 17.0979 42.5639 17.5723 42.5639Z" fill="#959595"/>
<path d="M25.2949 31.2597C25.2014 31.1887 25.0961 31.0996 24.9791 30.9923C24.8677 30.8825 24.785 30.7695 24.731 30.6532C24.6566 30.4926 24.645 30.3298 24.6963 30.1647C24.7505 29.9915 24.8316 29.7891 24.9394 29.5574C25.0762 29.2719 25.1599 29.0245 25.1907 28.8151C25.2188 28.6002 25.1893 28.3986 25.102 28.2103C25.0198 28.0331 24.9004 27.9136 24.7438 27.8516C24.5902 27.7815 24.4248 27.7876 24.2476 27.8698C24.159 27.9109 24.0809 27.9673 24.0132 28.039C23.9456 28.1108 23.8997 28.1859 23.8755 28.2644C23.8573 28.3266 23.8514 28.3866 23.8579 28.4441C23.8674 28.4935 23.882 28.554 23.9018 28.6256L24.123 29.3204L23.5665 29.5784C23.4234 29.4295 23.2862 29.2643 23.155 29.083C23.0238 28.9016 22.9092 28.7125 22.8112 28.5157C22.9072 28.3164 23.062 28.1134 23.2757 27.9067C23.4948 27.6974 23.7401 27.5298 24.0114 27.404C24.316 27.2628 24.6115 27.1964 24.898 27.2048C25.1845 27.2132 25.4432 27.285 25.6741 27.4202C25.905 27.5553 26.0782 27.7475 26.1938 27.9967C26.2888 28.2016 26.3293 28.4048 26.3151 28.6065C26.2985 28.8027 26.2476 28.9978 26.1627 29.1919C26.0778 29.3861 25.9778 29.5839 25.8626 29.7853C25.7789 29.9385 25.7182 30.0541 25.6804 30.1322C25.6481 30.2077 25.6339 30.2715 25.6379 30.3235C25.6473 30.3729 25.6643 30.4458 25.6888 30.5421L25.8265 31.0132L25.2949 31.2597ZM26.2938 32.6737C26.1277 32.7507 25.9742 32.7681 25.8335 32.7257C25.6957 32.6752 25.5934 32.578 25.5266 32.434C25.4573 32.2845 25.4491 32.1436 25.5022 32.0114C25.5582 31.871 25.6693 31.7623 25.8354 31.6853C25.996 31.6108 26.1479 31.5975 26.2913 31.6454C26.432 31.6878 26.5371 31.7837 26.6064 31.9332C26.6732 32.0772 26.6786 32.2194 26.6226 32.3598C26.564 32.4946 26.4544 32.5992 26.2938 32.6737Z" fill="black"/>
<path d="M16.928 29.6178C16.9165 29.501 16.9102 29.3632 16.9091 29.2045C16.9138 29.0481 16.9403 28.9106 16.9889 28.7919C17.0559 28.6281 17.1673 28.5088 17.3232 28.4341C17.487 28.356 17.6905 28.2777 17.9337 28.1991C18.236 28.1051 18.4743 27.9981 18.6486 27.8782C18.8253 27.7526 18.9529 27.5938 19.0315 27.4017C19.1055 27.2209 19.1119 27.0521 19.0508 26.8952C18.9976 26.7349 18.8806 26.6178 18.6998 26.5439C18.6094 26.5069 18.5149 26.488 18.4163 26.4873C18.3177 26.4865 18.2314 26.504 18.1575 26.5397C18.0994 26.5687 18.0516 26.6051 18.0138 26.6491C17.984 26.6896 17.9496 26.7415 17.9106 26.8047L17.552 27.4395L16.9842 27.2072C16.996 27.001 17.0237 26.7881 17.0674 26.5686C17.111 26.349 17.1716 26.1364 17.2492 25.9307C17.4605 25.8655 17.7146 25.8408 18.0115 25.8567C18.314 25.8749 18.6036 25.9407 18.8805 26.0539C19.1912 26.181 19.441 26.3524 19.6297 26.5681C19.8185 26.7838 19.9419 27.0223 19.9999 27.2834C20.0579 27.5446 20.035 27.8023 19.931 28.0565C19.8455 28.2655 19.724 28.4335 19.5666 28.5604C19.4115 28.6816 19.2339 28.7771 19.0339 28.847C18.8338 28.9168 18.6208 28.9781 18.3948 29.0307C18.2256 29.0736 18.0995 29.1078 18.0166 29.1332C17.9393 29.1609 17.8829 29.1939 17.8475 29.2322C17.8177 29.2728 17.7758 29.3348 17.7219 29.4183L17.4704 29.8397L16.928 29.6178ZM16.5714 31.3119C16.4019 31.2426 16.2848 31.1419 16.2201 31.0099C16.1633 30.8746 16.165 30.7335 16.2251 30.5866C16.2875 30.4341 16.3852 30.3322 16.5182 30.2811C16.6592 30.2267 16.8144 30.2341 16.9839 30.3035C17.1477 30.3705 17.2609 30.4728 17.3233 30.6105C17.388 30.7424 17.3891 30.8847 17.3268 31.0373C17.2667 31.1841 17.1661 31.2848 17.0252 31.3393C16.8865 31.3881 16.7352 31.3789 16.5714 31.3119Z" fill="black"/>
<path d="M41.9656 29.924C41.9656 40.5774 24.7743 63.8055 22.6444 63.8055C20.5145 63.8055 3.32324 40.5774 3.32324 29.924C3.32324 19.2705 11.9736 10.6342 22.6444 10.6342C33.3152 10.6342 41.9656 19.2705 41.9656 29.924Z" stroke="black" stroke-width="1.32928"/>
</svg>
