<svg width="982" height="622" viewBox="0 0 982 622" fill="none" xmlns="http://www.w3.org/2000/svg">
<g filter="url(#filter0_d_42_214)">
<path d="M10.789 434.364C10.5012 460.772 49.6686 482.598 98.2987 483.128C124.833 483.417 148.679 477.289 164.915 467.386C171.208 492.994 203.13 514.428 246.273 523.656C227.846 529.735 221.584 542.73 232.407 553.145C243.502 563.809 268.267 567.688 287.72 561.812C294.515 559.761 299.74 556.78 303.214 553.331C318.487 567.35 346.375 576.917 378.352 577.265C415.069 577.665 446.627 565.805 460.033 548.611C463.859 549.688 467.686 550.669 471.489 551.542C464.173 555.439 459.599 560.879 459.533 566.94C459.4 579.102 477.451 589.16 499.847 589.405C522.243 589.649 540.509 579.986 540.641 567.824C592.548 599.078 663.713 610.192 699.597 592.658C722.217 581.598 725.418 561.801 711.7 540.838C724.783 546.402 741.4 549.838 759.533 550.036C800.965 550.488 834.908 533.899 836.694 512.71C905.494 515.19 965.092 487.548 970.743 450.056C974.555 424.748 961.794 417.267 926.229 403.272C944.801 388.478 914.178 376.634 906.633 373.868C886.397 366.469 852.026 371.748 823.927 374.629C818.178 375.056 812.552 375.703 807.075 376.543C778.493 380.032 753.342 383.966 743.22 380.573C563.33 320.259 276.172 327.986 126.614 363.787C100.333 370.08 76.507 381.358 75.3417 400.823C50.3453 408.996 10.9257 417.216 10.7391 434.336L10.789 434.364Z" fill="#FCE40B"/>
<path d="M10.789 434.364C10.5012 460.772 49.6686 482.598 98.2987 483.128C124.833 483.417 148.679 477.289 164.915 467.386C171.208 492.994 203.13 514.428 246.273 523.656C227.846 529.735 221.584 542.73 232.407 553.145C243.502 563.809 268.267 567.688 287.72 561.812C294.515 559.761 299.74 556.78 303.214 553.331C318.487 567.35 346.375 576.917 378.352 577.265C415.069 577.665 446.627 565.805 460.033 548.611C463.859 549.688 467.686 550.669 471.489 551.542C464.173 555.439 459.599 560.879 459.533 566.94C459.4 579.102 477.451 589.16 499.847 589.405C522.243 589.649 540.509 579.986 540.641 567.824C592.548 599.078 663.713 610.192 699.597 592.658C722.217 581.598 725.418 561.801 711.7 540.838C724.783 546.402 741.4 549.838 759.533 550.036C800.965 550.488 834.908 533.899 836.694 512.71C905.494 515.19 965.092 487.548 970.743 450.056C974.555 424.748 961.794 417.267 926.229 403.272C944.801 388.478 914.178 376.634 906.633 373.868C886.397 366.469 852.026 371.748 823.927 374.629C818.178 375.056 812.552 375.703 807.075 376.543C778.493 380.032 753.342 383.966 743.22 380.573C563.33 320.259 276.172 327.986 126.614 363.787C100.333 370.08 76.507 381.358 75.3417 400.823C50.3453 408.996 10.9257 417.216 10.7391 434.336L10.789 434.364Z" stroke="url(#paint0_linear_42_214)" stroke-width="12" stroke-miterlimit="10" stroke-linecap="round"/>
</g>
<path d="M695.278 89.1019C694.953 123.89 674.083 39.142 557.758 38.0566C490.031 37.4246 449.6 132.712 450.028 86.8135C450.457 40.9155 505.664 8.26921 573.391 8.90117C641.118 9.53312 695.685 45.4438 695.278 89.1019Z" fill="white" stroke="black" stroke-width="17" stroke-miterlimit="10"/>
<path d="M677.448 88.9354C677.729 58.7875 631.039 33.91 573.162 33.3699C515.285 32.8299 468.138 56.8319 467.857 86.9798C467.576 117.128 514.266 142.005 572.143 142.545C630.02 143.085 677.167 119.083 677.448 88.9354Z" stroke="#E5D228" stroke-width="17" stroke-miterlimit="10"/>
<path d="M664.919 88.8187C665.134 65.806 623.999 46.765 573.042 46.2896C522.085 45.8141 480.602 64.0841 480.387 87.0968C480.172 110.11 521.307 129.15 572.264 129.626C623.221 130.101 664.704 111.831 664.919 88.8187Z" stroke="black" stroke-width="17" stroke-miterlimit="10"/>
<path opacity="0.8" d="M369.76 93.7849C350.111 93.6015 333.544 161.71 332.759 245.916C331.973 330.123 347.265 398.528 366.915 398.712L774.077 402.511C777.326 402.591 779.737 402.564 782.726 402.592C802.376 402.775 818.942 334.666 819.728 250.46C820.513 166.254 805.221 97.8481 785.572 97.6648L369.76 93.7849Z" fill="#EAEAEA" stroke="black" stroke-width="17" stroke-miterlimit="10"/>
<path d="M456.749 498.04C456.81 491.512 451.568 486.171 445.04 486.11C438.512 486.049 433.171 491.292 433.11 497.819C433.049 504.347 438.292 509.688 444.819 509.749C451.347 509.81 456.688 504.568 456.749 498.04Z" fill="white"/>
<path d="M233.749 490.04C233.81 483.512 228.568 478.171 222.04 478.11C215.512 478.049 210.171 483.292 210.11 489.819C210.049 496.347 215.292 501.688 221.819 501.749C228.347 501.81 233.688 496.568 233.749 490.04Z" fill="white"/>
<path d="M333.875 402.02C333.905 398.756 331.284 396.086 328.02 396.055C324.756 396.025 322.086 398.646 322.055 401.91C322.025 405.174 324.646 407.844 327.91 407.875C331.174 407.905 333.844 405.284 333.875 402.02Z" fill="white"/>
<path d="M445.8 548.052C445.856 542.06 441.044 537.157 435.052 537.101C429.06 537.045 424.157 541.858 424.101 547.85C424.045 553.842 428.857 558.744 434.85 558.8C440.842 558.856 445.744 554.044 445.8 548.052Z" fill="white"/>
<path d="M226.719 385.448C226.751 381.952 223.944 379.092 220.448 379.059C216.952 379.026 214.092 381.834 214.059 385.33C214.026 388.825 216.834 391.686 220.33 391.718C223.826 391.751 226.686 388.944 226.719 385.448Z" fill="white"/>
<path d="M433.718 513.448C433.751 509.952 430.944 507.092 427.448 507.059C423.952 507.026 421.092 509.834 421.059 513.33C421.026 516.826 423.834 519.686 427.33 519.718C430.826 519.751 433.686 516.944 433.718 513.448Z" fill="white"/>
<path d="M270.719 408.448C270.751 404.952 267.944 402.092 264.448 402.059C260.952 402.026 258.092 404.834 258.059 408.33C258.026 411.826 260.834 414.686 264.33 414.718C267.826 414.751 270.686 411.944 270.719 408.448Z" fill="white"/>
<path d="M635.292 125.654C634.282 125.644 633.445 127.651 633.422 130.136C633.399 132.622 634.198 134.644 635.208 134.653L777.546 135.981C778.555 135.991 779.392 133.984 779.416 131.499C779.439 129.013 778.639 126.991 777.63 126.982L635.292 125.654Z" fill="white"/>
<path d="M647.212 329.774C646.299 329.765 645.541 331.773 645.518 334.258C645.494 336.743 646.215 338.765 647.128 338.773L775.817 339.974C776.73 339.983 777.489 337.975 777.512 335.49C777.535 333.005 776.814 330.983 775.901 330.975L647.212 329.774Z" fill="white"/>
<path d="M458.111 114C455.314 113.974 453.021 116.639 452.991 119.953C452.96 123.266 455.202 125.973 457.999 126L784.374 129.045C787.171 129.071 789.463 126.406 789.494 123.092C789.525 119.779 787.283 117.072 784.486 117.045L458.111 114Z" fill="#B0B0B0"/>
<path d="M468.791 181.103C466.038 181.077 463.782 183.742 463.751 187.056C463.72 190.37 465.927 193.076 468.679 193.102L789.83 196.099C792.582 196.124 794.838 193.459 794.869 190.146C794.9 186.832 792.694 184.125 789.942 184.099L468.791 181.103Z" fill="#B0B0B0"/>
<path d="M467.395 333.096C464.643 333.071 462.387 335.736 462.356 339.049C462.325 342.363 464.531 345.07 467.283 345.096L788.411 348.092C791.164 348.118 793.42 345.452 793.451 342.139C793.481 338.825 791.276 336.118 788.523 336.093L467.395 333.096Z" fill="#B0B0B0"/>
<path d="M480.788 280.219C478.128 280.194 475.95 282.412 475.925 285.174C475.899 287.935 478.035 290.194 480.695 290.218L680.095 292.079C682.756 292.104 684.933 289.885 684.959 287.124C684.985 284.363 682.849 282.104 680.189 282.079L480.788 280.219Z" fill="#B0B0B0"/>
<path d="M749.602 280.627C746.256 280.596 743.517 283.281 743.486 286.625C743.455 289.969 746.143 292.705 749.489 292.737L791.788 293.131C795.134 293.163 797.873 290.477 797.904 287.133C797.935 283.789 795.247 281.053 791.901 281.022L749.602 280.627Z" fill="#B0B0B0"/>
<path d="M436.746 383.813C433.79 383.785 431.371 386.225 431.342 389.262C431.314 392.3 433.687 394.784 436.644 394.812L781.576 398.031C784.532 398.058 786.951 395.618 786.98 392.581C787.008 389.543 784.634 387.059 781.678 387.031L436.746 383.813Z" fill="#939393"/>
<path d="M384.602 378.042C382.117 378.019 380.08 380.462 380.051 383.5C380.023 386.537 382.014 389.018 384.499 389.041L674.419 391.747C676.904 391.77 678.941 389.326 678.969 386.289C678.998 383.251 677.006 380.77 674.522 380.747L384.602 378.042Z" fill="#FAED78"/>
<path d="M460.247 167.412C457.905 167.391 455.989 169.269 455.967 171.608C455.945 173.946 457.826 175.86 460.168 175.882L533.354 176.565C535.696 176.587 537.612 174.708 537.634 172.37C537.656 170.031 535.775 168.117 533.433 168.095L460.247 167.412Z" fill="white"/>
<path d="M350.637 167.015C349.776 167.007 349.061 168.896 349.04 171.235C349.018 173.574 349.697 175.476 350.558 175.484L377.445 175.735C378.306 175.743 379.021 173.854 379.042 171.515C379.064 169.176 378.385 167.273 377.524 167.265L350.637 167.015Z" fill="#B0B0B0"/>
<path d="M350.657 278.793C349.797 278.784 349.077 281.171 349.05 284.124C349.022 287.076 349.697 289.476 350.558 289.484L377.445 289.735C378.306 289.743 379.025 287.356 379.053 284.404C379.08 281.451 378.405 279.051 377.545 279.043L350.657 278.793Z" fill="#B0B0B0"/>
<path d="M414.295 121.262C424.947 140.372 441.211 175.405 440.591 241.882C439.97 308.359 425.901 346.8 412.049 361.991" stroke="black" stroke-width="12" stroke-miterlimit="10" stroke-linecap="round"/>
<path d="M235.566 469.941C251.898 469.115 264.468 455.204 263.641 438.872C262.814 422.54 248.904 409.97 232.572 410.797C216.24 411.624 203.67 425.534 204.497 441.866C205.324 458.198 219.234 470.768 235.566 469.941Z" fill="black"/>
<path d="M234.3 444.933C241.443 444.572 246.94 438.488 246.579 431.345C246.217 424.202 240.134 418.705 232.991 419.066C225.848 419.428 220.35 425.512 220.712 432.655C221.073 439.798 227.157 445.295 234.3 444.933Z" fill="white"/>
<path d="M247.987 454.013C250.656 453.878 252.711 451.604 252.576 448.934C252.441 446.265 250.167 444.21 247.497 444.345C244.828 444.481 242.773 446.754 242.908 449.424C243.043 452.094 245.317 454.148 247.987 454.013Z" fill="white"/>
<path d="M396.566 476.641C412.898 475.815 425.468 461.904 424.641 445.572C423.814 429.24 409.904 416.67 393.572 417.497C377.24 418.324 364.67 432.234 365.497 448.566C366.324 464.899 380.234 477.468 396.566 476.641Z" fill="black"/>
<path d="M395.3 451.633C402.443 451.272 407.94 445.188 407.579 438.045C407.217 430.902 401.134 425.405 393.991 425.767C386.848 426.128 381.35 432.212 381.712 439.355C382.073 446.498 388.157 451.995 395.3 451.633Z" fill="white"/>
<path d="M382.591 462.049C385.26 461.914 387.315 459.64 387.18 456.971C387.045 454.301 384.771 452.246 382.101 452.382C379.432 452.517 377.377 454.791 377.512 457.46C377.647 460.13 379.921 462.184 382.591 462.049Z" fill="white"/>
<path d="M344.703 524.851C344.703 524.851 348.35 502.79 325.28 497.602C302.21 492.413 293.399 511.001 291.81 512.956" stroke="black" stroke-width="12" stroke-miterlimit="10" stroke-linecap="round"/>
<path d="M202.749 513.04C202.81 506.512 197.568 501.171 191.04 501.11C184.512 501.049 179.171 506.292 179.11 512.819C179.049 519.347 184.292 524.688 190.819 524.749C197.347 524.81 202.688 519.568 202.749 513.04Z" fill="white"/>
<path d="M364.727 96.1279C367.437 96.1532 371.381 98.4521 375.921 106.15C380.278 113.539 384.338 124.541 387.771 138.563C394.619 166.531 398.709 205.387 398.307 248.448C397.906 291.509 393.092 330.281 385.723 358.116C382.028 372.072 377.763 382.997 373.269 390.303C368.587 397.915 364.601 400.14 361.891 400.115C359.181 400.089 355.237 397.79 350.697 390.092C346.34 382.704 342.28 371.701 338.846 357.679C331.998 329.711 327.909 290.856 328.31 247.795C328.712 204.734 333.526 165.961 340.895 138.126C344.59 124.171 348.854 113.245 353.348 105.94C358.031 98.3275 362.017 96.1026 364.727 96.1279Z" fill="white" fill-opacity="0.8" stroke="black" stroke-width="10"/>
<path d="M358.719 385.448C358.751 381.952 355.944 379.092 352.448 379.059C348.952 379.026 346.092 381.834 346.059 385.33C346.026 388.826 348.834 391.686 352.33 391.718C355.826 391.751 358.686 388.944 358.719 385.448Z" fill="white"/>
<path d="M327.135 429.919C311.255 439.413 290.685 434.236 281.191 418.356C271.698 402.476 276.874 381.907 292.754 372.413C308.634 362.919 330.5 382 376 373.5C369 393 343.015 420.425 327.135 429.919Z" fill="#FAED78"/>
<path d="M325.719 421.448C325.751 417.952 322.944 415.092 319.448 415.059C315.952 415.026 313.092 417.834 313.059 421.33C313.026 424.826 315.834 427.686 319.33 427.718C322.826 427.751 325.686 424.944 325.719 421.448Z" fill="white"/>
<path d="M800.083 483.084C800.129 478.159 796.149 474.13 791.194 474.084C786.238 474.037 782.183 477.992 782.137 482.916C782.091 487.841 786.072 491.87 791.027 491.916C795.983 491.962 800.037 488.008 800.083 483.084Z" fill="white"/>
<path d="M749.261 533.202C749.287 530.382 747.022 528.074 744.202 528.048C741.382 528.021 739.074 530.286 739.048 533.107C739.021 535.927 741.286 538.234 744.107 538.261C746.927 538.287 749.234 536.022 749.261 533.202Z" fill="white"/>
<path d="M312.925 393.023C312.966 388.592 308.525 384.958 303.004 384.907C297.484 384.855 292.976 388.405 292.934 392.836C292.893 397.267 297.334 400.901 302.855 400.953C308.375 401.004 312.884 397.454 312.925 393.023Z" fill="white"/>
<path d="M425.749 491.107C425.81 484.58 416.028 471.128 409.5 471.067C402.972 471.006 402.171 484.359 402.11 490.887C402.049 497.414 407.292 502.756 413.819 502.816C420.347 502.877 425.688 497.635 425.749 491.107Z" fill="white"/>
<defs>
<filter id="filter0_d_42_214" x="0.700684" y="330.057" width="980.69" height="284.912" filterUnits="userSpaceOnUse" color-interpolation-filters="sRGB">
<feFlood flood-opacity="0" result="BackgroundImageFix"/>
<feColorMatrix in="SourceAlpha" type="matrix" values="0 0 0 0 0 0 0 0 0 0 0 0 0 0 0 0 0 0 127 0" result="hardAlpha"/>
<feOffset dy="4"/>
<feGaussianBlur stdDeviation="2"/>
<feComposite in2="hardAlpha" operator="out"/>
<feColorMatrix type="matrix" values="0 0 0 0 0 0 0 0 0 0 0 0 0 0 0 0 0 0 0.25 0"/>
<feBlend mode="normal" in2="BackgroundImageFix" result="effect1_dropShadow_42_214"/>
<feBlend mode="normal" in="SourceGraphic" in2="effect1_dropShadow_42_214" result="shape"/>
</filter>
<linearGradient id="paint0_linear_42_214" x1="606.562" y1="590.216" x2="609.647" y2="389.207" gradientUnits="userSpaceOnUse">
<stop stop-color="white"/>
<stop offset="1" stop-color="#E5D228"/>
</linearGradient>
</defs>
</svg>
