<svg width="24" height="24" viewBox="0 0 24 24" fill="none" xmlns="http://www.w3.org/2000/svg">
<circle cx="12" cy="12" r="11.5" fill="#FCE40B" stroke="#00475A"/>
<path d="M12.3143 20C11.1587 20 10.1032 19.7983 9.14792 19.395C8.20801 18.9767 7.39137 18.4015 6.698 17.6695C6.00462 16.9374 5.47304 16.0859 5.10324 15.1148C4.73344 14.1438 4.54854 13.1055 4.54854 12C4.54854 10.8796 4.73344 9.8338 5.10324 8.86275C5.47304 7.89169 5.99692 7.04762 6.67488 6.33053C7.36826 5.59851 8.1926 5.03081 9.14792 4.62745C10.1032 4.20915 11.1587 4 12.3143 4C13.5162 4 14.5562 4.20915 15.4345 4.62745C16.3282 5.04575 17.1448 5.61345 17.8844 6.33053L16.3821 7.78712C15.8737 7.20448 15.2804 6.7563 14.6025 6.44258C13.9245 6.12885 13.131 5.97199 12.2219 5.97199C11.1125 5.97199 10.1418 6.23343 9.30971 6.7563C8.49307 7.26424 7.86133 7.97386 7.41448 8.88516C6.96764 9.78151 6.74422 10.8198 6.74422 12C6.74422 13.1653 6.96764 14.2035 7.41448 15.1148C7.87673 16.0261 8.52388 16.7432 9.35593 17.2661C10.2034 17.774 11.1972 18.028 12.3374 18.028C13.2465 18.028 14.0401 17.8712 14.718 17.5574C15.396 17.2288 15.9892 16.7731 16.4977 16.1905L18 17.6247C17.2604 18.3716 16.4284 18.9542 15.5039 19.3726C14.5794 19.7909 13.5162 20 12.3143 20ZM3 10.8571V9.19888H14.0015L13.4468 10.8571H3ZM3 14.7787V13.098H13.0539L12.4992 14.7787H3Z" fill="#00475A"/>
</svg>
