<svg width="338" height="282" viewBox="0 0 338 282" fill="none" xmlns="http://www.w3.org/2000/svg">
<g filter="url(#filter0_d_69_1793)">
<path d="M152.257 199.353C152.322 205.381 146.245 210.331 138.678 210.414C134.549 210.459 130.834 209.041 128.299 206.768C127.34 212.608 122.39 217.475 115.684 219.547C118.556 220.949 119.541 223.919 117.865 226.288C116.146 228.713 112.296 229.579 109.264 228.222C108.205 227.749 107.39 227.065 106.847 226.275C104.481 229.462 100.149 231.624 95.1732 231.678C89.4601 231.74 84.54 229.008 82.4403 225.073C81.8458 225.316 81.2511 225.537 80.66 225.733C81.8016 226.629 82.5176 227.874 82.5327 229.257C82.5629 232.033 79.762 234.314 76.2772 234.353C72.7923 234.391 69.9424 232.171 69.9122 229.395C61.8596 236.487 50.7946 238.968 45.1969 234.937C41.6683 232.395 41.1546 227.874 43.2727 223.101C41.2413 224.36 38.6582 225.132 35.8367 225.162C29.3899 225.233 24.0951 221.42 23.8004 216.583C13.0964 217.094 3.80079 210.738 2.89191 202.177C2.27871 196.398 4.25853 194.701 9.78181 191.534C6.88017 188.143 11.636 185.464 12.8079 184.839C15.951 183.166 21.3036 184.398 25.6783 185.078C26.5732 185.18 27.4491 185.332 28.3021 185.528C32.7525 186.347 36.6693 187.265 38.2416 186.498C66.1865 172.875 110.877 174.865 134.178 183.154C138.272 184.611 141.989 187.203 142.185 191.647C146.081 193.532 152.222 195.439 152.264 199.347L152.257 199.353Z" fill="#FCE40B"/>
<path d="M152.257 199.353C152.322 205.381 146.245 210.331 138.678 210.414C134.549 210.459 130.834 209.041 128.299 206.768C127.34 212.608 122.39 217.475 115.684 219.547C118.556 220.949 119.541 223.919 117.865 226.288C116.146 228.713 112.296 229.579 109.264 228.222C108.205 227.749 107.39 227.065 106.847 226.275C104.481 229.462 100.149 231.624 95.1732 231.678C89.4601 231.74 84.54 229.008 82.4403 225.073C81.8458 225.316 81.2511 225.537 80.66 225.733C81.8016 226.629 82.5176 227.874 82.5327 229.257C82.5629 232.033 79.762 234.314 76.2772 234.353C72.7923 234.391 69.9424 232.171 69.9122 229.395C61.8596 236.487 50.7946 238.968 45.1969 234.937C41.6683 232.395 41.1546 227.874 43.2727 223.101C41.2413 224.36 38.6582 225.132 35.8367 225.162C29.3899 225.233 24.0951 221.42 23.8004 216.583C13.0964 217.094 3.80079 210.738 2.89191 202.177C2.27871 196.398 4.25853 194.701 9.78181 191.534C6.88017 188.143 11.636 185.464 12.8079 184.839C15.951 183.166 21.3036 184.398 25.6783 185.078C26.5732 185.18 27.4491 185.332 28.3021 185.528C32.7525 186.347 36.6693 187.265 38.2416 186.498C66.1865 172.875 110.877 174.865 134.178 183.154C138.272 184.611 141.989 187.203 142.185 191.647C146.081 193.532 152.222 195.439 152.264 199.347L152.257 199.353Z" stroke="url(#paint0_linear_69_1793)" stroke-width="2.27218" stroke-miterlimit="10" stroke-linecap="round"/>
</g>
<path d="M112.265 211.374C110.777 211.374 109.571 210.166 109.571 208.676C109.571 207.186 110.777 205.978 112.265 205.978C113.753 205.978 114.959 207.186 114.959 208.676C114.959 210.166 113.753 211.374 112.265 211.374Z" fill="white"/>
<path d="M87.5914 206.722C71.2908 206.722 58.0766 203.35 58.0766 199.19C58.0766 195.03 71.2908 191.658 87.5914 191.658C103.892 191.658 117.106 195.03 117.106 199.19C117.106 203.35 103.892 206.722 87.5914 206.722Z" fill="white"/>
<path d="M60.9255 203.07C44.6249 203.07 31.4107 199.698 31.4107 195.538C31.4107 191.378 44.6249 188.006 60.9255 188.006C77.2261 188.006 90.4403 191.378 90.4403 195.538C90.4403 199.698 77.2261 203.07 60.9255 203.07Z" fill="white"/>
<path d="M66.1674 211.972C49.8668 211.972 36.6526 208.599 36.6526 204.44C36.6526 200.28 49.8668 196.908 66.1674 196.908C82.468 196.908 95.6823 200.28 95.6823 204.44C95.6823 208.599 82.468 211.972 66.1674 211.972Z" fill="white"/>
<path d="M38.9067 173.05C46.8358 173.05 27.5657 168.106 27.5657 141.555C27.5657 126.096 49.3679 117.071 38.9067 117.071C28.4454 117.071 20.8878 129.602 20.8878 145.06C20.8878 160.519 28.9559 173.05 38.9067 173.05Z" fill="white" stroke="black" stroke-width="3.21893" stroke-miterlimit="10"/>
<path d="M38.9067 168.98C32.0353 168.98 26.4649 158.271 26.4649 145.06C26.4649 131.85 32.0353 121.141 38.9067 121.141C45.7781 121.141 51.3485 131.85 51.3485 145.06C51.3485 158.271 45.7781 168.98 38.9067 168.98Z" stroke="#E5D228" stroke-width="3.21893" stroke-miterlimit="10"/>
<path d="M38.9068 166.12C33.6616 166.12 29.4096 156.691 29.4096 145.06C29.4096 133.429 33.6616 124 38.9068 124C44.1519 124 48.4039 133.429 48.4039 145.06C48.4039 156.691 44.1519 166.12 38.9068 166.12Z" stroke="black" stroke-width="3.21893" stroke-miterlimit="10"/>
<path d="M40.6662 98.7661C40.6662 94.2812 56.2236 90.6453 75.4162 90.6453C94.6088 90.6453 110.166 94.2812 110.166 98.7661V191.702C110.178 192.443 110.166 192.993 110.166 193.676C110.166 198.161 94.6088 201.797 75.4162 201.797C56.2236 201.797 40.6662 198.161 40.6662 193.676V98.7661Z" fill="#FCE40B" stroke="black" stroke-width="3.21893" stroke-miterlimit="10"/>
<path d="M40.6662 98.7661C40.6662 94.2812 56.2236 90.6453 75.4162 90.6453C94.6088 90.6453 110.166 94.2812 110.166 98.7661V148.336C110.178 149.077 110.166 149.627 110.166 150.31C110.166 154.795 94.6088 158.431 75.4162 158.431C56.2236 158.431 40.6662 154.795 40.6662 150.31V98.7661Z" fill="white" fill-opacity="0.9" stroke="black" stroke-width="3.21893" stroke-miterlimit="10"/>
<path d="M99.0053 190.038C97.5175 190.038 96.3113 188.83 96.3113 187.34C96.3113 185.85 97.5175 184.642 99.0053 184.642C100.493 184.642 101.699 185.85 101.699 187.34C101.699 188.83 100.493 190.038 99.0053 190.038Z" fill="white"/>
<path d="M102.645 121.812C101.157 121.812 99.9511 120.604 99.9511 119.114C99.9511 117.624 101.157 116.416 102.645 116.416C104.133 116.416 105.339 117.624 105.339 119.114C105.339 120.604 104.133 121.812 102.645 121.812Z" fill="white"/>
<path d="M55.2026 116.16C54.4587 116.16 53.8556 115.556 53.8556 114.811C53.8556 114.067 54.4587 113.463 55.2026 113.463C55.9465 113.463 56.5496 114.067 56.5496 114.811C56.5496 115.556 55.9465 116.16 55.2026 116.16Z" fill="white"/>
<path d="M89.6928 195.436C88.205 195.436 86.9988 194.228 86.9988 192.738C86.9988 191.248 88.205 190.04 89.6928 190.04C91.1806 190.04 92.3867 191.248 92.3867 192.738C92.3867 194.228 91.1806 195.436 89.6928 195.436Z" fill="white"/>
<path d="M78.3951 163.972C77.0293 163.972 75.9222 162.864 75.9222 161.496C75.9222 160.128 77.0293 159.02 78.3951 159.02C79.7608 159.02 80.8679 160.128 80.8679 161.496C80.8679 162.864 79.7608 163.972 78.3951 163.972Z" fill="white"/>
<path d="M73.1189 183.146C70.8531 183.146 69.0164 181.307 69.0164 179.038C69.0164 176.769 70.8531 178.353 73.1189 178.353C75.3846 178.353 77.2213 176.769 77.2213 179.038C77.2213 181.307 75.3846 183.146 73.1189 183.146Z" fill="black"/>
<path d="M75.8083 151.946C75.0115 151.946 74.3656 151.3 74.3656 150.502C74.3656 149.704 75.0115 149.057 75.8083 149.057C76.6051 149.057 77.251 149.704 77.251 150.502C77.251 151.3 76.6051 151.946 75.8083 151.946Z" fill="white"/>
<path d="M90.8118 131.893C90.015 131.893 89.3691 131.246 89.3691 130.448C89.3691 129.65 90.015 129.004 90.8118 129.004C91.6086 129.004 92.2545 129.65 92.2545 130.448C92.2545 131.246 91.6086 131.893 90.8118 131.893Z" fill="white"/>
<path d="M73.9758 137.017C73.179 137.017 72.5331 136.37 72.5331 135.572C72.5331 134.774 73.179 134.128 73.9758 134.128C74.7725 134.128 75.4185 134.774 75.4185 135.572C75.4185 136.37 74.7725 137.017 73.9758 137.017Z" fill="white"/>
<path d="M62.8354 122.745C62.0386 122.745 61.3927 122.098 61.3927 121.3C61.3927 120.503 62.0386 119.856 62.8354 119.856C63.6322 119.856 64.2781 120.503 64.2781 121.3C64.2781 122.098 63.6322 122.745 62.8354 122.745Z" fill="white"/>
<path d="M54.888 135.127C54.0912 135.127 53.4453 134.48 53.4453 133.683C53.4453 132.885 54.0912 132.238 54.888 132.238C55.6848 132.238 56.3307 132.885 56.3307 133.683C56.3307 134.48 55.6848 135.127 54.888 135.127Z" fill="white"/>
<path d="M47.3645 159.437C47.3645 159.206 47.8237 159.02 48.3902 159.02C48.9566 159.02 49.4158 159.206 49.4158 159.437V191.926C49.4158 192.156 48.9566 192.343 48.3902 192.343C47.8237 192.343 47.3645 192.156 47.3645 191.926V159.437Z" fill="white"/>
<path d="M93.8589 162.592C93.8589 162.384 94.3181 162.215 94.8845 162.215C95.451 162.215 95.9102 162.384 95.9102 162.592V191.966C95.9102 192.174 95.451 192.343 94.8845 192.343C94.3181 192.343 93.8589 192.174 93.8589 191.966V162.592Z" fill="white"/>
<path d="M45.0855 158.881C45.0855 158.579 45.6977 158.335 46.453 158.335C47.2082 158.335 47.8204 158.579 47.8204 158.881V194.079C47.8204 194.381 47.2082 194.625 46.453 194.625C45.6977 194.625 45.0855 194.381 45.0855 194.079V158.881Z" fill="#D0A800"/>
<path d="M60.3557 161.375C60.3557 161.082 60.968 160.846 61.7232 160.846C62.4785 160.846 63.0907 161.082 63.0907 161.375V195.466C63.0907 195.758 62.4785 195.995 61.7232 195.995C60.968 195.995 60.3557 195.758 60.3557 195.466V161.375Z" fill="#D0A800"/>
<path d="M94.9986 161.375C94.9986 161.082 95.6108 160.846 96.366 160.846C97.1213 160.846 97.7335 161.082 97.7335 161.375V195.466C97.7335 195.758 97.1213 195.995 96.366 195.995C95.6108 195.995 94.9986 195.758 94.9986 195.466V161.375Z" fill="#D0A800"/>
<path d="M82.9191 161.082C82.9191 160.952 83.4293 160.846 84.0587 160.846C84.688 160.846 85.1982 160.952 85.1982 161.082V170.88C85.1982 171.01 84.688 171.116 84.0587 171.116C83.4293 171.116 82.9191 171.01 82.9191 170.88V161.082Z" fill="#D0A800"/>
<path d="M82.4405 185.856C82.4405 185.092 83.0584 184.473 83.8205 184.473C84.5827 184.473 85.2006 185.092 85.2006 185.856V195.511C85.2006 196.275 84.5827 196.894 83.8205 196.894C83.0584 196.894 82.4405 196.275 82.4405 195.511V185.856Z" fill="#D0A800"/>
<path d="M106.622 155.734C106.622 155.406 107.183 155.14 107.876 155.14C108.568 155.14 109.129 155.406 109.129 155.734V194.031C109.129 194.359 108.568 194.625 107.876 194.625C107.183 194.625 106.622 194.359 106.622 194.031V155.734Z" fill="#FCAD22"/>
<path d="M57.2538 119.575C57.2538 119.04 57.6859 118.607 58.219 118.607C58.7521 118.607 59.1842 119.04 59.1842 119.575V136.28C59.1842 136.814 58.7521 137.248 58.219 137.248C57.6859 137.248 57.2538 136.814 57.2538 136.28V119.575Z" fill="white"/>
<path d="M46.8336 108.989C51.1662 111.461 59.1159 115.247 74.2676 115.247C89.4193 115.247 98.2099 112.118 101.702 108.989" stroke="black" stroke-width="2.27218" stroke-miterlimit="10" stroke-linecap="round"/>
<path d="M93.5546 141.524C95.7367 144.549 95.0561 148.774 92.0344 150.96C89.0127 153.147 84.7942 152.467 82.6121 149.442C80.43 146.417 81.1106 142.192 84.1323 140.006C87.154 137.82 91.3725 138.499 93.5546 141.524Z" fill="black"/>
<path d="M88.1804 145.413C88.8366 146.322 88.6319 147.593 87.7233 148.25C86.8147 148.907 85.5462 148.703 84.8901 147.794C84.2339 146.884 84.4386 145.614 85.3472 144.956C86.2558 144.299 87.5243 144.503 88.1804 145.413Z" fill="white"/>
<path d="M92.4941 146.011C92.8507 146.506 92.7395 147.196 92.2456 147.554C91.7516 147.911 91.0621 147.8 90.7054 147.306C90.3487 146.811 90.46 146.121 90.9539 145.763C91.4478 145.406 92.1374 145.517 92.4941 146.011Z" fill="white"/>
<path d="M63.6354 154.813C59.9083 154.813 56.8869 151.787 56.8869 148.055C56.8869 144.322 59.9083 141.297 63.6354 141.297C67.3625 141.297 70.3839 144.322 70.3839 148.055C70.3839 151.787 67.3625 154.813 63.6354 154.813Z" fill="black"/>
<path d="M64.914 151.568C63.7811 151.568 62.8628 150.648 62.8628 149.513C62.8628 148.379 63.7811 147.459 64.914 147.459C66.0468 147.459 66.9652 148.379 66.9652 149.513C66.9652 150.648 66.0468 151.568 64.914 151.568Z" fill="white"/>
<path d="M61.9624 146.026C61.3532 146.026 60.8593 145.531 60.8593 144.921C60.8593 144.311 61.3532 143.816 61.9624 143.816C62.5717 143.816 63.0656 144.311 63.0656 144.921C63.0656 145.531 62.5717 146.026 61.9624 146.026Z" fill="white"/>
<path d="M65.7117 173.022C65.7117 173.022 69.1304 181.353 78.133 176.902C81.4377 175.269 84.8564 176.902 88.8449 179.299" stroke="black" stroke-width="2.27218" stroke-miterlimit="10" stroke-linecap="round"/>
<path d="M87.1947 122.131C85.7069 122.131 84.5008 120.923 84.5008 119.433C84.5008 117.943 85.7069 116.736 87.1947 116.736C88.6826 116.736 89.8887 117.943 89.8887 119.433C89.8887 120.923 88.6826 122.131 87.1947 122.131Z" fill="white"/>
<path d="M41.0181 97.6226C41.0181 98.3513 41.6168 99.3066 43.3723 100.366C45.0698 101.39 47.5892 102.345 50.7858 103.161C57.1647 104.788 66.028 105.806 75.8538 105.806C85.6796 105.806 94.5428 104.788 100.922 103.161C104.118 102.345 106.638 101.39 108.335 100.366C110.091 99.3066 110.689 98.3513 110.689 97.6226C110.689 96.894 110.091 95.9386 108.335 94.8796C106.638 93.8556 104.118 92.8999 100.922 92.0843C94.5428 90.4568 85.6796 89.4397 75.8538 89.4397C66.028 89.4397 57.1647 90.4568 50.7858 92.0843C47.5892 92.8999 45.0698 93.8556 43.3723 94.8796C41.6168 95.9386 41.0181 96.894 41.0181 97.6226Z" fill="white" fill-opacity="0.4" stroke="black" stroke-width="1.89349"/>
<g clip-path="url(#clip0_69_1793)">
<path d="M215.081 166.834C205.434 170.822 226.404 155.142 213.111 122.991C205.372 104.271 174.327 104.31 187.055 99.0478C199.783 93.7855 215.251 105.157 222.991 123.877C230.731 142.596 227.188 161.828 215.081 166.834Z" fill="white" stroke="black" stroke-width="3.93251" stroke-miterlimit="10"/>
<path d="M213.044 161.906C221.404 158.449 222.82 142.679 216.206 126.682C209.592 110.685 197.453 100.519 189.093 103.976C180.732 107.432 179.317 123.202 185.931 139.199C192.545 155.196 204.684 165.362 213.044 161.906Z" stroke="#E5D228" stroke-width="3.93251" stroke-miterlimit="10"/>
<path d="M211.612 158.443C217.994 155.804 218.446 142.248 212.623 128.163C206.8 114.079 196.906 104.8 190.524 107.439C184.143 110.077 183.69 123.634 189.513 137.718C195.337 151.802 205.23 161.081 211.612 158.443Z" stroke="black" stroke-width="3.93251" stroke-miterlimit="10"/>
<path d="M175.75 77.7668C173.505 72.3359 152.756 75.7589 129.405 85.4133C106.054 95.0677 88.9467 107.296 91.1922 112.727L137.721 225.265C138.079 226.169 138.368 226.83 138.709 227.656C140.955 233.087 161.703 229.664 185.054 220.01C208.405 210.355 225.513 198.127 223.267 192.696L175.75 77.7668Z" fill="#FCE40B" stroke="black" stroke-width="3.93251" stroke-miterlimit="10"/>
<path d="M150.467 217.636C152.277 216.888 153.14 214.818 152.394 213.014C151.648 211.21 149.576 210.354 147.766 211.103C145.955 211.851 145.093 213.92 145.839 215.725C146.585 217.529 148.657 218.385 150.467 217.636Z" fill="white"/>
<path d="M111.881 136.85C113.691 136.102 114.554 134.033 113.808 132.228C113.062 130.424 110.99 129.568 109.179 130.317C107.369 131.065 106.506 133.134 107.252 134.939C107.998 136.743 110.071 137.599 111.881 136.85Z" fill="white"/>
<path d="M166.773 106.142C167.678 105.768 168.109 104.733 167.736 103.831C167.363 102.929 166.327 102.501 165.422 102.875C164.517 103.25 164.086 104.284 164.459 105.186C164.832 106.089 165.868 106.516 166.773 106.142Z" fill="white"/>
<path d="M164.5 219.488C166.31 218.74 167.173 216.67 166.427 214.866C165.681 213.062 163.609 212.206 161.798 212.955C159.988 213.703 159.125 215.772 159.871 217.576C160.617 219.381 162.69 220.237 164.5 219.488Z" fill="white"/>
<path d="M165.622 188.849C167.283 188.162 168.075 186.263 167.391 184.606C166.706 182.95 164.804 182.165 163.142 182.852C161.48 183.539 160.689 185.438 161.373 187.094C162.058 188.75 163.96 189.536 165.622 188.849Z" fill="white"/>
<path d="M159.619 159.842C160.589 159.441 161.051 158.333 160.651 157.366C160.252 156.4 159.142 155.942 158.173 156.343C157.203 156.744 156.741 157.852 157.141 158.818C157.54 159.784 158.65 160.243 159.619 159.842Z" fill="white"/>
<path d="M131.325 143.106C132.295 142.705 132.757 141.597 132.357 140.631C131.958 139.664 130.848 139.206 129.878 139.607C128.909 140.008 128.447 141.116 128.847 142.082C129.246 143.048 130.356 143.507 131.325 143.106Z" fill="white"/>
<path d="M154.374 140.842C155.344 140.441 155.806 139.333 155.406 138.366C155.007 137.4 153.897 136.942 152.928 137.343C151.958 137.743 151.496 138.852 151.896 139.818C152.295 140.784 153.405 141.242 154.374 140.842Z" fill="white"/>
<path d="M160.783 117.955C161.752 117.555 162.214 116.447 161.815 115.48C161.415 114.514 160.306 114.056 159.336 114.456C158.367 114.857 157.905 115.965 158.304 116.932C158.704 117.898 159.813 118.356 160.783 117.955Z" fill="white"/>
<path d="M176.651 128.952C177.621 128.551 178.083 127.443 177.683 126.476C177.284 125.51 176.174 125.052 175.205 125.453C174.235 125.853 173.773 126.962 174.173 127.928C174.572 128.894 175.682 129.352 176.651 128.952Z" fill="white"/>
<path d="M176.126 102.01C175.859 101.362 175.116 101.055 174.468 101.323C173.819 101.591 173.51 102.333 173.778 102.981L211.508 194.237C211.775 194.884 212.518 195.192 213.167 194.923C213.815 194.655 214.124 193.913 213.856 193.266L176.126 102.01Z" fill="white"/>
<path d="M119.517 125.415C119.249 124.768 118.507 124.46 117.858 124.728C117.21 124.997 116.901 125.739 117.168 126.386L154.898 217.642C155.166 218.29 155.909 218.597 156.557 218.329C157.206 218.061 157.515 217.318 157.247 216.671L119.517 125.415Z" fill="white"/>
<path d="M173.058 86.3265C172.676 85.4015 171.614 84.9625 170.686 85.3459C169.759 85.7292 169.317 86.7899 169.7 87.7149L214.325 195.648C214.707 196.573 215.769 197.013 216.697 196.629C217.624 196.246 218.066 195.185 217.683 194.26L173.058 86.3265Z" fill="#D0A800"/>
<path d="M155.043 95.7166C154.66 94.7916 153.599 94.3525 152.671 94.7359C151.744 95.1193 151.302 96.18 151.685 97.105L196.31 205.038C196.692 205.964 197.754 206.403 198.682 206.019C199.609 205.636 200.05 204.575 199.668 203.65L155.043 95.7166Z" fill="#D0A800"/>
<path d="M113.041 113.082C112.659 112.157 111.597 111.718 110.67 112.101C109.743 112.485 109.301 113.546 109.683 114.471L154.308 222.404C154.691 223.329 155.753 223.768 156.68 223.385C157.607 223.001 158.049 221.941 157.666 221.016L113.041 113.082Z" fill="#D0A800"/>
<path d="M129.577 110.032C129.194 109.107 128.133 108.668 127.205 109.051C126.278 109.435 125.836 110.495 126.219 111.42L154.884 180.751C155.266 181.676 156.328 182.115 157.255 181.732C158.182 181.349 158.624 180.288 158.242 179.363L129.577 110.032Z" fill="#D0A800"/>
<path d="M168.527 204.24C168.145 203.315 167.083 202.876 166.156 203.26C165.228 203.643 164.787 204.704 165.169 205.629L170.003 217.32C170.385 218.245 171.447 218.684 172.374 218.3C173.302 217.917 173.743 216.856 173.361 215.931L168.527 204.24Z" fill="#D0A800"/>
<path d="M98.4745 117.163C98.092 116.238 97.0303 115.799 96.103 116.182C95.1757 116.566 94.734 117.626 95.1164 118.551L139.742 226.485C140.124 227.41 141.186 227.849 142.113 227.466C143.04 227.082 143.482 226.022 143.1 225.097L98.4745 117.163Z" fill="#FCAD22"/>
<path d="M165.987 111.309C165.719 110.662 164.976 110.354 164.328 110.622C163.679 110.891 163.37 111.633 163.638 112.28L172.001 132.508C172.269 133.156 173.012 133.463 173.66 133.195C174.309 132.927 174.618 132.185 174.35 131.537L165.987 111.309Z" fill="white"/>
<path d="M173.365 93.2484C169.331 98.4211 161.555 107.005 143.12 114.627C124.686 122.249 112.424 122.881 106.609 120.849" stroke="black" stroke-width="2.77589" stroke-miterlimit="10" stroke-linecap="round"/>
<path d="M179.65 64.5587C177.434 59.1996 171.283 56.6587 165.906 58.8817C162.972 60.0947 160.879 62.4778 159.942 65.2602C157.073 60.3784 151.749 57.5697 146.234 57.7691C147.737 55.6558 147.318 52.7255 145.245 51.1359C143.121 49.5092 140.076 49.9106 138.443 52.0323C137.872 52.773 137.553 53.6266 137.466 54.4912C134.598 52.3855 130.727 51.7855 127.191 53.2473C123.132 54.9257 120.681 58.8386 120.674 62.9612C120.163 62.9265 119.66 62.9113 119.169 62.9169C119.639 61.7774 119.678 60.4572 119.17 59.2273C118.149 56.7592 115.314 55.5882 112.838 56.612C110.362 57.6358 109.181 60.4669 110.202 62.935C101.851 59.0961 93.1034 60.2567 90.6613 65.5253C89.1224 68.8477 90.4562 73.0082 93.7441 76.594C91.8362 76.0947 89.7219 76.1954 87.7171 77.0243C83.1362 78.9183 80.8265 83.9024 82.4338 88.2768C74.6797 91.0717 70.4979 99.5224 73.0688 107.382C74.8044 112.687 76.8401 113.59 81.9303 114.718C81.1531 118.603 85.5183 119.533 86.5809 119.731C89.4291 120.259 92.7483 117.543 95.5838 115.614C96.1777 115.252 96.7394 114.851 97.2685 114.419C100.105 112.343 102.528 110.341 103.926 110.543C128.781 114.131 159.607 98.8071 172.957 84.3941C175.303 81.8611 176.955 78.4367 175.427 74.4408C177.472 71.5888 181.094 68.0361 179.658 64.562L179.65 64.5587Z" fill="white" stroke="black" stroke-width="2.77589" stroke-miterlimit="10" stroke-linecap="round"/>
<path d="M138.471 170.048C143.005 168.174 145.167 162.99 143.298 158.47C141.429 153.95 136.238 151.806 131.704 153.681C127.169 155.556 125.008 160.74 126.877 165.259C128.745 169.779 133.936 171.923 138.471 170.048Z" fill="black"/>
<path d="M135.609 163.128C137.593 162.308 138.538 160.041 137.721 158.064C136.903 156.087 134.633 155.149 132.65 155.969C130.667 156.789 129.721 159.056 130.539 161.033C131.356 163.01 133.626 163.948 135.609 163.128Z" fill="white"/>
<path d="M140.388 164.311C141.129 164.004 141.482 163.157 141.177 162.418C140.871 161.679 140.023 161.329 139.282 161.635C138.54 161.942 138.187 162.789 138.493 163.528C138.798 164.267 139.647 164.617 140.388 164.311Z" fill="white"/>
<path d="M178.243 153.605C182.778 151.73 184.939 146.546 183.07 142.026C181.201 137.506 176.01 135.362 171.476 137.237C166.941 139.112 164.78 144.296 166.649 148.816C168.517 153.335 173.708 155.479 178.243 153.605Z" fill="black"/>
<path d="M175.382 146.684C177.365 145.864 178.31 143.597 177.493 141.62C176.675 139.643 174.405 138.706 172.422 139.526C170.439 140.345 169.494 142.613 170.311 144.589C171.128 146.566 173.398 147.504 175.382 146.684Z" fill="white"/>
<path d="M172.831 150.897C173.572 150.591 173.926 149.743 173.62 149.004C173.315 148.266 172.466 147.915 171.725 148.222C170.984 148.528 170.63 149.375 170.936 150.114C171.241 150.853 172.09 151.204 172.831 150.897Z" fill="white"/>
<path d="M100.845 90.3834C100.845 90.3834 99.7494 96.9852 106.668 98.5229C113.586 100.061 116.229 94.492 116.708 93.9059" stroke="black" stroke-width="2.77589" stroke-miterlimit="10" stroke-linecap="round"/>
<path d="M157.7 190.115C157.7 190.115 158.267 196.78 165.356 196.571C172.445 196.361 173.636 190.319 173.953 189.634" stroke="black" stroke-width="2.77589" stroke-miterlimit="10" stroke-linecap="round"/>
<path d="M143.57 88.2594C143.57 88.2594 149.257 91.7913 153.353 86.0072C157.449 80.2231 153.319 75.659 152.96 74.995" stroke="black" stroke-width="2.77589" stroke-miterlimit="10" stroke-linecap="round"/>
<path d="M142.116 72.8054C143.249 72.3368 143.789 71.0413 143.322 69.9118C142.855 68.7822 141.558 68.2464 140.424 68.7149C139.291 69.1835 138.751 70.479 139.218 71.6085C139.685 72.7381 140.982 73.2739 142.116 72.8054Z" fill="#FFB545"/>
<path d="M138.492 81.6563C139.625 81.1878 140.166 79.8923 139.699 78.7627C139.232 77.6332 137.934 77.0973 136.801 77.5659C135.668 78.0344 135.128 79.3299 135.595 80.4595C136.062 81.589 137.359 82.1249 138.492 81.6563Z" fill="#FFB545"/>
<path d="M121.377 68.9101C121.944 68.6758 122.214 68.0281 121.981 67.4633C121.747 66.8985 121.098 66.6306 120.532 66.8649C119.965 67.0991 119.695 67.7469 119.929 68.3117C120.162 68.8765 120.811 69.1444 121.377 68.9101Z" fill="#FFB545"/>
<path d="M128.616 72.3997C129.182 72.1654 129.453 71.5176 129.219 70.9529C128.986 70.3881 128.337 70.1202 127.77 70.3544C127.204 70.5887 126.934 71.2365 127.167 71.8012C127.401 72.366 128.049 72.6339 128.616 72.3997Z" fill="#FFB545"/>
<path d="M107.087 81.3009C108.22 80.8323 108.76 79.5368 108.293 78.4072C107.826 77.2777 106.529 76.7418 105.396 77.2104C104.262 77.6789 103.722 78.9745 104.189 80.104C104.656 81.2336 105.954 81.7694 107.087 81.3009Z" fill="#FFB545"/>
<path d="M116.251 88.3728C117.385 87.9042 117.925 86.6087 117.458 85.4791C116.991 84.3496 115.693 83.8137 114.56 84.2823C113.427 84.7508 112.887 86.0464 113.354 87.1759C113.821 88.3055 115.118 88.8413 116.251 88.3728Z" fill="#FFB545"/>
<path d="M120.769 76.3754C120.769 76.3754 120.409 79.5339 123.726 80.0948C127.042 80.6557 128.162 77.9532 128.377 77.6637" stroke="black" stroke-width="1.85059" stroke-miterlimit="10" stroke-linecap="round"/>
<path d="M130.838 129.465C132.649 128.717 133.511 126.648 132.765 124.843C132.019 123.039 129.947 122.183 128.137 122.932C126.327 123.68 125.464 125.749 126.21 127.554C126.956 129.358 129.028 130.214 130.838 129.465Z" fill="white"/>
</g>
<path d="M193.662 230.723C195.218 231.017 196.717 229.993 197.01 228.438C197.303 226.882 196.28 225.384 194.724 225.091C193.169 224.797 191.67 225.821 191.377 227.376C191.084 228.932 192.107 230.43 193.662 230.723Z" fill="white"/>
<path d="M220.374 230.73C237.416 233.943 251.894 233.026 252.713 228.684C253.532 224.341 240.38 218.216 223.338 215.004C206.297 211.791 191.818 212.707 190.999 217.05C190.181 221.393 203.332 227.518 220.374 230.73Z" fill="white"/>
<path d="M248.971 232.173C266.013 235.385 280.491 234.469 281.31 230.127C282.129 225.784 268.977 219.659 251.935 216.447C234.894 213.234 220.415 214.15 219.596 218.493C218.778 222.836 231.929 228.96 248.971 232.173Z" fill="white"/>
<path d="M241.739 240.433C258.781 243.645 273.259 242.729 274.078 238.386C274.897 234.044 261.745 227.919 244.703 224.706C227.662 221.494 213.183 222.41 212.364 226.753C211.546 231.095 224.697 237.22 241.739 240.433Z" fill="white"/>
<path d="M277.899 205.172C269.609 203.609 290.728 202.246 295.954 174.527C298.996 158.389 277.978 144.67 288.915 146.732C299.852 148.794 305.288 163.365 302.245 179.503C299.203 195.642 288.302 207.133 277.899 205.172Z" fill="white" stroke="black" stroke-width="4.12206" stroke-miterlimit="10"/>
<path d="M278.7 200.923C285.884 202.278 293.815 192.195 296.415 178.404C299.014 164.613 295.298 152.335 288.114 150.98C280.931 149.626 272.999 159.708 270.4 173.5C267.8 187.291 271.516 199.569 278.7 200.923Z" stroke="#E5D228" stroke-width="4.12206" stroke-miterlimit="10"/>
<path d="M279.263 197.938C284.746 198.971 291.047 189.966 293.336 177.824C295.625 165.681 293.035 155 287.552 153.966C282.068 152.932 275.767 161.938 273.478 174.08C271.189 186.223 273.779 196.904 279.263 197.938Z" stroke="black" stroke-width="4.12206" stroke-miterlimit="10"/>
<path d="M290.678 127.275C291.561 122.593 276.012 115.731 255.946 111.949C235.881 108.166 218.901 108.896 218.018 113.578L199.728 210.6C199.571 211.372 199.474 211.949 199.34 212.661C198.457 217.343 214.007 224.205 234.072 227.988C254.137 231.77 271.118 231.04 272 226.358L290.678 127.275Z" fill="#FCE40B" stroke="black" stroke-width="4.12206" stroke-miterlimit="10"/>
<path d="M290.678 127.275C291.561 122.593 276.011 115.731 255.946 111.949C235.881 108.166 218.9 108.896 218.018 113.578L208.263 165.327C208.105 166.099 208.008 166.676 207.874 167.388C206.992 172.071 222.541 178.932 242.606 182.715C262.671 186.497 279.652 185.768 280.534 181.085L290.678 127.275Z" fill="white" fill-opacity="0.9" stroke="black" stroke-width="4.12206" stroke-miterlimit="10"/>
<path d="M211.724 211.063C213.28 211.356 214.779 210.333 215.072 208.777C215.365 207.222 214.342 205.723 212.786 205.43C211.231 205.136 209.732 206.16 209.439 207.715C209.146 209.271 210.169 210.769 211.724 211.063Z" fill="white"/>
<path d="M221.346 139.119C222.901 139.413 224.4 138.389 224.693 136.834C224.986 135.278 223.963 133.78 222.408 133.487C220.852 133.193 219.353 134.217 219.06 135.772C218.767 137.328 219.79 138.826 221.346 139.119Z" fill="white"/>
<path d="M272.058 142.57C272.835 142.716 273.585 142.205 273.731 141.427C273.878 140.649 273.366 139.9 272.589 139.753C271.811 139.607 271.062 140.118 270.915 140.896C270.768 141.674 271.28 142.423 272.058 142.57Z" fill="white"/>
<path d="M220.398 218.533C221.954 218.826 223.452 217.803 223.745 216.248C224.039 214.692 223.015 213.193 221.46 212.9C219.904 212.607 218.406 213.63 218.113 215.186C217.819 216.741 218.843 218.24 220.398 218.533Z" fill="white"/>
<path d="M238.401 187.913C239.829 188.182 241.205 187.243 241.474 185.815C241.743 184.387 240.804 183.012 239.376 182.743C237.948 182.473 236.573 183.413 236.303 184.84C236.034 186.268 236.973 187.644 238.401 187.913Z" fill="white"/>
<path d="M240.144 208.97C242.513 209.416 244.795 207.858 245.242 205.489C245.688 203.121 243.456 204.413 241.087 203.966C238.719 203.52 237.11 201.504 236.664 203.872C236.217 206.241 237.775 208.523 240.144 208.97Z" fill="black"/>
<path d="M243.472 175.868C244.305 176.025 245.108 175.477 245.265 174.644C245.422 173.811 244.874 173.009 244.041 172.852C243.208 172.695 242.405 173.243 242.248 174.076C242.091 174.909 242.639 175.711 243.472 175.868Z" fill="white"/>
<path d="M231.733 151.976C232.566 152.133 233.369 151.585 233.526 150.752C233.683 149.919 233.135 149.117 232.302 148.96C231.469 148.803 230.666 149.351 230.509 150.184C230.352 151.017 230.9 151.819 231.733 151.976Z" fill="white"/>
<path d="M248.326 160.644C249.159 160.801 249.962 160.253 250.119 159.42C250.276 158.587 249.728 157.784 248.895 157.627C248.062 157.47 247.259 158.018 247.102 158.851C246.945 159.684 247.493 160.487 248.326 160.644Z" fill="white"/>
<path d="M262.782 147.94C263.615 148.097 264.418 147.549 264.575 146.716C264.732 145.883 264.184 145.08 263.351 144.923C262.518 144.766 261.715 145.314 261.558 146.147C261.401 146.98 261.949 147.783 262.782 147.94Z" fill="white"/>
<path d="M268.654 162.432C269.487 162.589 270.289 162.041 270.446 161.208C270.604 160.375 270.056 159.573 269.223 159.416C268.39 159.259 267.587 159.807 267.43 160.64C267.273 161.473 267.821 162.275 268.654 162.432Z" fill="white"/>
<path d="M271.735 189.294C271.781 189.053 271.337 188.768 270.745 188.656C270.153 188.544 269.636 188.649 269.591 188.889L263.197 222.807C263.152 223.047 263.595 223.333 264.187 223.444C264.779 223.556 265.296 223.452 265.342 223.211L271.735 189.294Z" fill="white"/>
<path d="M222.506 183.425C222.547 183.207 222.1 182.94 221.508 182.829C220.916 182.717 220.402 182.803 220.361 183.02L214.581 213.685C214.54 213.903 214.987 214.17 215.579 214.281C216.171 214.393 216.684 214.307 216.725 214.09L222.506 183.425Z" fill="white"/>
<path d="M274.227 189.163C274.287 188.848 273.695 188.472 272.905 188.323C272.116 188.174 271.428 188.309 271.368 188.624L264.441 225.369C264.382 225.684 264.974 226.06 265.763 226.209C266.553 226.358 267.241 226.223 267.301 225.908L274.227 189.163Z" fill="#D0A800"/>
<path d="M257.772 188.756C257.83 188.451 257.236 188.083 256.447 187.934C255.657 187.786 254.97 187.912 254.913 188.217L248.204 223.807C248.146 224.112 248.74 224.48 249.529 224.629C250.319 224.778 251.006 224.651 251.063 224.346L257.772 188.756Z" fill="#D0A800"/>
<path d="M221.554 181.929C221.612 181.624 221.018 181.256 220.228 181.107C219.439 180.958 218.752 181.085 218.695 181.39L211.986 216.98C211.928 217.285 212.522 217.653 213.311 217.802C214.101 217.951 214.787 217.824 214.845 217.519L221.554 181.929Z" fill="#D0A800"/>
<path d="M234.24 184.004C234.266 183.868 233.753 183.657 233.096 183.533C232.438 183.409 231.883 183.419 231.858 183.555L229.929 193.783C229.904 193.92 230.416 194.131 231.074 194.255C231.732 194.379 232.286 194.369 232.312 194.233L234.24 184.004Z" fill="#D0A800"/>
<path d="M229.865 209.962C230.016 209.164 229.491 208.396 228.695 208.246C227.898 208.096 227.13 208.62 226.98 209.418L225.08 219.497C224.929 220.295 225.453 221.063 226.25 221.213C227.047 221.363 227.815 220.839 227.965 220.041L229.865 209.962Z" fill="#D0A800"/>
<path d="M210.512 173.749C210.577 173.407 210.042 173.018 209.318 172.882C208.595 172.745 207.956 172.913 207.891 173.255L200.354 213.236C200.29 213.579 200.824 213.967 201.548 214.104C202.272 214.24 202.911 214.073 202.975 213.73L210.512 173.749Z" fill="#FCAD22"/>
<path d="M269.241 145.73C269.346 145.172 268.98 144.635 268.423 144.53C267.865 144.424 267.328 144.792 267.223 145.35L263.936 162.789C263.83 163.347 264.197 163.885 264.754 163.99C265.311 164.095 265.849 163.728 265.954 163.17L269.241 145.73Z" fill="white"/>
<path d="M282.219 136.732C277.202 138.459 268.146 140.845 252.305 137.859C236.465 134.873 227.89 129.874 224.856 125.919" stroke="black" stroke-width="2.90969" stroke-miterlimit="10" stroke-linecap="round"/>
<path d="M226.971 161.492C224.094 164.22 223.973 168.764 226.701 171.642C229.43 174.519 233.974 174.64 236.851 171.911C239.729 169.183 239.849 164.639 237.121 161.761C234.393 158.884 229.848 158.763 226.971 161.492Z" fill="black"/>
<path d="M231.824 166.609C230.959 167.43 230.922 168.796 231.743 169.661C232.563 170.526 233.93 170.563 234.795 169.742C235.66 168.922 235.696 167.556 234.876 166.69C234.055 165.825 232.689 165.789 231.824 166.609Z" fill="white"/>
<path d="M227.196 166.384C226.726 166.83 226.706 167.573 227.152 168.043C227.598 168.513 228.341 168.533 228.811 168.087C229.281 167.641 229.301 166.898 228.855 166.428C228.409 165.958 227.666 165.938 227.196 166.384Z" fill="white"/>
<path d="M255.635 181.26C259.531 181.994 263.286 179.431 264.02 175.535C264.755 171.638 262.191 167.884 258.295 167.149C254.398 166.415 250.644 168.978 249.909 172.875C249.175 176.771 251.738 180.525 255.635 181.26Z" fill="black"/>
<path d="M254.937 177.62C256.121 177.843 257.262 177.064 257.485 175.879C257.709 174.695 256.93 173.554 255.745 173.331C254.561 173.107 253.42 173.887 253.196 175.071C252.973 176.255 253.752 177.396 254.937 177.62Z" fill="white"/>
<path d="M259.113 172.416C259.75 172.536 260.364 172.117 260.484 171.48C260.604 170.843 260.185 170.229 259.548 170.109C258.911 169.989 258.297 170.408 258.177 171.045C258.057 171.682 258.476 172.296 259.113 172.416Z" fill="white"/>
<path d="M249.88 199.861C249.88 199.861 244.667 207.884 236.131 201.463C232.997 199.106 229.102 200.138 224.46 201.854" stroke="black" stroke-width="2.90969" stroke-miterlimit="10" stroke-linecap="round"/>
<path d="M237.436 142.498C238.991 142.791 240.49 141.768 240.783 140.212C241.076 138.657 240.053 137.158 238.498 136.865C236.942 136.572 235.443 137.595 235.15 139.151C234.857 140.706 235.88 142.205 237.436 142.498Z" fill="white"/>
<path d="M290.334 125.974C290.212 126.62 289.495 127.463 287.464 128.218C285.514 128.943 282.715 129.442 279.221 129.663C272.253 130.103 262.804 129.421 252.543 127.487C242.283 125.552 233.234 122.748 226.904 119.801C223.731 118.323 221.306 116.839 219.754 115.454C218.137 114.012 217.776 112.965 217.897 112.319C218.019 111.674 218.736 110.83 220.768 110.075C222.717 109.351 225.517 108.852 229.01 108.631C235.978 108.19 245.427 108.873 255.688 110.807C265.949 112.741 274.998 115.546 281.327 118.493C284.5 119.971 286.926 121.455 288.478 122.839C290.095 124.282 290.455 125.328 290.334 125.974Z" fill="white" fill-opacity="0.4" stroke="black" stroke-width="2.42474"/>
<defs>
<filter id="filter0_d_69_1793" x="0.891287" y="175.465" width="153.272" height="64.0546" filterUnits="userSpaceOnUse" color-interpolation-filters="sRGB">
<feFlood flood-opacity="0" result="BackgroundImageFix"/>
<feColorMatrix in="SourceAlpha" type="matrix" values="0 0 0 0 0 0 0 0 0 0 0 0 0 0 0 0 0 0 127 0" result="hardAlpha"/>
<feOffset dy="0.757395"/>
<feGaussianBlur stdDeviation="0.378697"/>
<feComposite in2="hardAlpha" operator="out"/>
<feColorMatrix type="matrix" values="0 0 0 0 0 0 0 0 0 0 0 0 0 0 0 0 0 0 0.25 0"/>
<feBlend mode="normal" in2="BackgroundImageFix" result="effect1_dropShadow_69_1793"/>
<feBlend mode="normal" in="SourceGraphic" in2="effect1_dropShadow_69_1793" result="shape"/>
</filter>
<linearGradient id="paint0_linear_69_1793" x1="59.672" y1="234.453" x2="58.872" y2="188.577" gradientUnits="userSpaceOnUse">
<stop stop-color="white"/>
<stop offset="1" stop-color="#E5D228"/>
</linearGradient>
<clipPath id="clip0_69_1793">
<rect width="183" height="228" fill="white" transform="translate(25.6128 70.6944) rotate(-22.4627)"/>
</clipPath>
</defs>
</svg>
