<svg width="61" height="93" viewBox="0 0 61 93" fill="none" xmlns="http://www.w3.org/2000/svg">
<path d="M60.0037 40.0682C60.0037 56.0971 34.1382 91.0454 30.9336 91.0454C27.729 91.0454 1.86353 56.0971 1.86353 40.0682C1.86353 24.0394 14.8787 11.0454 30.9336 11.0454C46.9886 11.0454 60.0037 24.0394 60.0037 40.0682Z" fill="#FFF06D" stroke="#D0A800" stroke-width="2"/>
<path d="M16.0134 66.0798C16.6235 66.0798 17.1181 65.5852 17.1181 64.9751C17.1181 64.365 16.6235 63.8704 16.0134 63.8704C15.4033 63.8704 14.9087 64.365 14.9087 64.9751C14.9087 65.5852 15.4033 66.0798 16.0134 66.0798Z" fill="white"/>
<path d="M26.1315 64.175C32.8159 64.175 38.2347 62.7942 38.2347 61.0908C38.2347 59.3874 32.8159 58.0066 26.1315 58.0066C19.4471 58.0066 14.0283 59.3874 14.0283 61.0908C14.0283 62.7942 19.4471 64.175 26.1315 64.175Z" fill="white"/>
<path d="M37.0666 62.6797C43.751 62.6797 49.1698 61.2988 49.1698 59.5954C49.1698 57.8921 43.751 56.5112 37.0666 56.5112C30.3822 56.5112 24.9634 57.8921 24.9634 59.5954C24.9634 61.2988 30.3822 62.6797 37.0666 62.6797Z" fill="white"/>
<path d="M34.9169 66.3247C41.6013 66.3247 47.0201 64.9438 47.0201 63.2405C47.0201 61.5371 41.6013 60.1562 34.9169 60.1562C28.2325 60.1562 22.8137 61.5371 22.8137 63.2405C22.8137 64.9438 28.2325 66.3247 34.9169 66.3247Z" fill="white"/>
<path d="M46.0959 50.3866C42.8444 50.3866 50.7465 48.3622 50.7465 37.4899C50.7465 31.1598 41.8061 27.4644 46.0959 27.4644C50.3858 27.4644 53.485 32.5954 53.485 38.9255C53.485 45.2556 50.1764 50.3866 46.0959 50.3866Z" fill="white" stroke="black" stroke-width="1.58884" stroke-miterlimit="10"/>
<path d="M46.0957 48.7203C48.9135 48.7203 51.1977 44.335 51.1977 38.9256C51.1977 33.5161 48.9135 29.1309 46.0957 29.1309C43.2779 29.1309 40.9937 33.5161 40.9937 38.9256C40.9937 44.335 43.2779 48.7203 46.0957 48.7203Z" stroke="#E5D228" stroke-width="1.58884" stroke-miterlimit="10"/>
<path d="M46.0957 47.5493C48.2466 47.5493 49.9902 43.6884 49.9902 38.9256C49.9902 34.1629 48.2466 30.302 46.0957 30.302C43.9448 30.302 42.2012 34.1629 42.2012 38.9256C42.2012 43.6884 43.9448 47.5493 46.0957 47.5493Z" stroke="black" stroke-width="1.58884" stroke-miterlimit="10"/>
<path d="M45.3744 19.9689C45.3744 18.1324 38.9947 16.6436 31.1244 16.6436C23.254 16.6436 16.8744 18.1324 16.8744 19.9689V58.0243C16.8697 58.3281 16.8744 58.5533 16.8744 58.8328C16.8744 60.6693 23.254 62.1581 31.1244 62.1581C38.9947 62.1581 45.3744 60.6693 45.3744 58.8328V19.9689Z" fill="#FCE40B" stroke="black" stroke-width="1.58884" stroke-miterlimit="10"/>
<path d="M45.3744 19.9689C45.3744 18.1324 38.9947 16.6436 31.1244 16.6436C23.254 16.6436 16.8744 18.1324 16.8744 19.9689V40.2668C16.8697 40.5705 16.8744 40.7957 16.8744 41.0752C16.8744 42.9117 23.254 44.4005 31.1244 44.4005C38.9947 44.4005 45.3744 42.9117 45.3744 41.0752V19.9689Z" fill="white" fill-opacity="0.9" stroke="black" stroke-width="1.58884" stroke-miterlimit="10"/>
<path d="M21.4511 57.343C22.0613 57.343 22.5559 56.8484 22.5559 56.2383C22.5559 55.6281 22.0613 55.1335 21.4511 55.1335C20.841 55.1335 20.3464 55.6281 20.3464 56.2383C20.3464 56.8484 20.841 57.343 21.4511 57.343Z" fill="white"/>
<path d="M19.9585 29.4057C20.5686 29.4057 21.0632 28.9111 21.0632 28.301C21.0632 27.6909 20.5686 27.1963 19.9585 27.1963C19.3484 27.1963 18.8538 27.6909 18.8538 28.301C18.8538 28.9111 19.3484 29.4057 19.9585 29.4057Z" fill="white"/>
<path d="M39.4134 27.0915C39.7185 27.0915 39.9658 26.8442 39.9658 26.5392C39.9658 26.2341 39.7185 25.9868 39.4134 25.9868C39.1084 25.9868 38.8611 26.2341 38.8611 26.5392C38.8611 26.8442 39.1084 27.0915 39.4134 27.0915Z" fill="white"/>
<path d="M25.27 59.5534C25.8801 59.5534 26.3747 59.0588 26.3747 58.4487C26.3747 57.8386 25.8801 57.344 25.27 57.344C24.6599 57.344 24.1653 57.8386 24.1653 58.4487C24.1653 59.0588 24.6599 59.5534 25.27 59.5534Z" fill="white"/>
<path d="M29.9027 46.6697C30.4628 46.6697 30.9168 46.2157 30.9168 45.6557C30.9168 45.0956 30.4628 44.6416 29.9027 44.6416C29.3427 44.6416 28.8887 45.0956 28.8887 45.6557C28.8887 46.2157 29.3427 46.6697 29.9027 46.6697Z" fill="white"/>
<path d="M32.0663 54.5211C32.9954 54.5211 33.7486 53.7679 33.7486 52.8388C33.7486 51.9097 32.9954 52.5584 32.0663 52.5584C31.1372 52.5584 30.384 51.9097 30.384 52.8388C30.384 53.7679 31.1372 54.5211 32.0663 54.5211Z" fill="black"/>
<path d="M30.9634 41.7452C31.2902 41.7452 31.555 41.4804 31.555 41.1536C31.555 40.8269 31.2902 40.562 30.9634 40.562C30.6367 40.562 30.3718 40.8269 30.3718 41.1536C30.3718 41.4804 30.6367 41.7452 30.9634 41.7452Z" fill="white"/>
<path d="M24.8111 33.5338C25.1378 33.5338 25.4027 33.2689 25.4027 32.9422C25.4027 32.6155 25.1378 32.3506 24.8111 32.3506C24.4844 32.3506 24.2195 32.6155 24.2195 32.9422C24.2195 33.2689 24.4844 33.5338 24.8111 33.5338Z" fill="white"/>
<path d="M31.7149 35.6319C32.0416 35.6319 32.3065 35.3671 32.3065 35.0403C32.3065 34.7136 32.0416 34.4487 31.7149 34.4487C31.3882 34.4487 31.1233 34.7136 31.1233 35.0403C31.1233 35.3671 31.3882 35.6319 31.7149 35.6319Z" fill="white"/>
<path d="M36.2833 29.788C36.61 29.788 36.8749 29.5231 36.8749 29.1963C36.8749 28.8696 36.61 28.6047 36.2833 28.6047C35.9565 28.6047 35.6917 28.8696 35.6917 29.1963C35.6917 29.5231 35.9565 29.788 36.2833 29.788Z" fill="white"/>
<path d="M39.5423 34.8583C39.869 34.8583 40.1339 34.5934 40.1339 34.2667C40.1339 33.9399 39.869 33.675 39.5423 33.675C39.2156 33.675 38.9507 33.9399 38.9507 34.2667C38.9507 34.5934 39.2156 34.8583 39.5423 34.8583Z" fill="white"/>
<path d="M42.6275 44.8124C42.6275 44.7181 42.4392 44.6416 42.207 44.6416C41.9747 44.6416 41.7864 44.7181 41.7864 44.8124V58.1161C41.7864 58.2104 41.9747 58.2869 42.207 58.2869C42.4392 58.2869 42.6275 58.2104 42.6275 58.1161V44.8124Z" fill="white"/>
<path d="M23.5614 46.1047C23.5614 46.0193 23.3731 45.9502 23.1408 45.9502C22.9085 45.9502 22.7202 46.0193 22.7202 46.1047V58.1326C22.7202 58.2179 22.9085 58.287 23.1408 58.287C23.3731 58.287 23.5614 58.2179 23.5614 58.1326V46.1047Z" fill="white"/>
<path d="M43.562 44.585C43.562 44.4615 43.3109 44.3613 43.0012 44.3613C42.6915 44.3613 42.4404 44.4615 42.4404 44.585V58.998C42.4404 59.1215 42.6915 59.2216 43.0012 59.2216C43.3109 59.2216 43.562 59.1215 43.562 58.998V44.585Z" fill="#D0A800"/>
<path d="M37.3002 45.606C37.3002 45.4864 37.0492 45.3894 36.7395 45.3894C36.4298 45.3894 36.1787 45.4864 36.1787 45.606V59.5658C36.1787 59.6854 36.4298 59.7824 36.7395 59.7824C37.0492 59.7824 37.3002 59.6854 37.3002 59.5658V45.606Z" fill="#D0A800"/>
<path d="M23.0942 45.606C23.0942 45.4864 22.8431 45.3894 22.5334 45.3894C22.2237 45.3894 21.9727 45.4864 21.9727 45.606V59.5658C21.9727 59.6854 22.2237 59.7824 22.5334 59.7824C22.8431 59.7824 23.0942 59.6854 23.0942 59.5658V45.606Z" fill="#D0A800"/>
<path d="M28.0476 45.4863C28.0476 45.4328 27.8384 45.3894 27.5803 45.3894C27.3223 45.3894 27.113 45.4328 27.113 45.4863V49.4982C27.113 49.5518 27.3223 49.5951 27.5803 49.5951C27.8384 49.5951 28.0476 49.5518 28.0476 49.4982V45.4863Z" fill="#D0A800"/>
<path d="M28.2439 55.6308C28.2439 55.318 27.9905 55.0645 27.678 55.0645C27.3654 55.0645 27.1121 55.318 27.1121 55.6308V59.5842C27.1121 59.897 27.3654 60.1506 27.678 60.1506C27.9905 60.1506 28.2439 59.897 28.2439 59.5842V55.6308Z" fill="#D0A800"/>
<path d="M18.3276 43.2961C18.3276 43.1617 18.0975 43.0527 17.8136 43.0527C17.5297 43.0527 17.2996 43.1617 17.2996 43.2961V58.9781C17.2996 59.1125 17.5297 59.2215 17.8136 59.2215C18.0975 59.2215 18.3276 59.1125 18.3276 58.9781V43.2961Z" fill="#FCAD22"/>
<path d="M38.5721 28.4898C38.5721 28.2709 38.3949 28.0935 38.1763 28.0935C37.9577 28.0935 37.7805 28.2709 37.7805 28.4898V35.3302C37.7805 35.549 37.9577 35.7265 38.1763 35.7265C38.3949 35.7265 38.5721 35.549 38.5721 35.3302V28.4898Z" fill="white"/>
<path d="M42.8453 24.155C41.0686 25.1672 37.8086 26.7177 31.5954 26.7177C25.3821 26.7177 21.7773 25.4364 20.3455 24.155" stroke="black" stroke-width="1.12153" stroke-miterlimit="10" stroke-linecap="round"/>
<path d="M23.6867 37.478C22.7916 38.7169 23.0703 40.4468 24.3092 41.3418C25.5481 42.2369 27.278 41.9581 28.1731 40.7193C29.0681 39.4804 28.7894 37.7505 27.5505 36.8554C26.3116 35.9604 24.5817 36.2391 23.6867 37.478Z" fill="black"/>
<path d="M25.8902 39.07C25.6211 39.4425 25.7049 39.9627 26.0774 40.2318C26.4499 40.501 26.9701 40.4172 27.2392 40.0446C27.5084 39.6721 27.4246 39.1519 27.0521 38.8828C26.6795 38.6137 26.1594 38.6975 25.8902 39.07Z" fill="white"/>
<path d="M24.1211 39.3151C23.9748 39.5176 24.0204 39.8004 24.2229 39.9467C24.4254 40.093 24.7082 40.0474 24.8545 39.8449C25.0008 39.6424 24.9552 39.3597 24.7527 39.2134C24.5502 39.0671 24.2674 39.1126 24.1211 39.3151Z" fill="white"/>
<path d="M35.9554 42.9193C37.4837 42.9193 38.7227 41.6803 38.7227 40.1519C38.7227 38.6235 37.4837 37.3845 35.9554 37.3845C34.427 37.3845 33.188 38.6235 33.188 40.1519C33.188 41.6803 34.427 42.9193 35.9554 42.9193Z" fill="black"/>
<path d="M35.431 41.5903C35.8955 41.5903 36.2721 41.2137 36.2721 40.7491C36.2721 40.2846 35.8955 39.908 35.431 39.908C34.9664 39.908 34.5898 40.2846 34.5898 40.7491C34.5898 41.2137 34.9664 41.5903 35.431 41.5903Z" fill="white"/>
<path d="M36.6413 39.321C36.8911 39.321 37.0937 39.1184 37.0937 38.8686C37.0937 38.6188 36.8911 38.4163 36.6413 38.4163C36.3915 38.4163 36.189 38.6188 36.189 38.8686C36.189 39.1184 36.3915 39.321 36.6413 39.321Z" fill="white"/>
<path d="M35.104 50.3754C35.104 50.3754 33.7021 53.7867 30.0104 51.9643C28.6552 51.2953 27.2533 51.9643 25.6177 52.9455" stroke="black" stroke-width="1.12153" stroke-miterlimit="10" stroke-linecap="round"/>
<path d="M26.2942 29.5366C26.9043 29.5366 27.3989 29.042 27.3989 28.4319C27.3989 27.8217 26.9043 27.3271 26.2942 27.3271C25.684 27.3271 25.1895 27.8217 25.1895 28.4319C25.1895 29.042 25.684 29.5366 26.2942 29.5366Z" fill="white"/>
<path d="M45.1509 19.5006C45.1509 19.7539 44.9395 20.1245 44.224 20.5555C43.5373 20.9691 42.5126 21.3582 41.2051 21.6913C38.5973 22.3557 34.9696 22.7718 30.9449 22.7718C26.9202 22.7718 23.2924 22.3557 20.6846 21.6913C19.3771 21.3582 18.3524 20.9691 17.6657 20.5555C16.9502 20.1245 16.7388 19.7539 16.7388 19.5006C16.7388 19.2474 16.9502 18.8768 17.6657 18.4458C18.3524 18.0321 19.3771 17.6431 20.6846 17.31C23.2924 16.6456 26.9202 16.2295 30.9449 16.2295C34.9696 16.2295 38.5973 16.6456 41.2051 17.31C42.5126 17.6431 43.5373 18.0321 44.224 18.4458C44.9395 18.8768 45.1509 19.2474 45.1509 19.5006Z" fill="white" fill-opacity="0.4" stroke="black" stroke-width="0.93461"/>
</svg>
